<svg xmlns="http://www.w3.org/2000/svg" viewBox="0 0 127.61 99.23"><defs><style>.cls-1,.cls-2{fill:#231815;}.cls-1{fill-rule:evenodd;}</style></defs><g id="图层_2" data-name="图层 2"><g id="图层_1-2" data-name="图层 1"><path class="cls-1" d="M43.13,88a4.72,4.72,0,0,1,.24-.95,3,3,0,0,1,.52-.84,2.37,2.37,0,0,1,.76-.57,2.31,2.31,0,0,1,1-.21,2.11,2.11,0,0,1,1.7.77,2.62,2.62,0,0,1,.43.85,3.21,3.21,0,0,1,.14.95Zm6.61-3.62A4.57,4.57,0,0,0,48,83.17a6.52,6.52,0,0,0-2.25-.37,6.05,6.05,0,0,0-2.26.43,5.58,5.58,0,0,0-1.95,1.29,6.35,6.35,0,0,0-1.35,2.18,8.42,8.42,0,0,0-.51,3.06,7.62,7.62,0,0,0,.54,3,5.58,5.58,0,0,0,1.46,2A5.81,5.81,0,0,0,43.77,96a9.48,9.48,0,0,0,2.59.35A13.71,13.71,0,0,0,49,96.06a10.34,10.34,0,0,0,1.87-.5l0,0V92.88l-.12,0a13.68,13.68,0,0,1-2,.52,8.18,8.18,0,0,1-3.38,0,3.53,3.53,0,0,1-1.21-.55,2.84,2.84,0,0,1-.83-1A3.67,3.67,0,0,1,43,90.55h8.3C51.38,88.4,51.3,86,49.74,84.34Z"/><path class="cls-1" d="M110,88a4.18,4.18,0,0,1,.24-.94,2.76,2.76,0,0,1,.52-.84,2.37,2.37,0,0,1,.76-.57,2.31,2.31,0,0,1,1-.21,2.19,2.19,0,0,1,1,.21,2,2,0,0,1,.7.56,2.39,2.39,0,0,1,.43.84,3.7,3.7,0,0,1,.15,1Zm7.78-1.55a5.48,5.48,0,0,0-1.17-2.06,4.46,4.46,0,0,0-1.79-1.17,6.52,6.52,0,0,0-2.25-.37,6,6,0,0,0-2.26.43,5.49,5.49,0,0,0-2,1.29A6.37,6.37,0,0,0,107,86.76a8.65,8.65,0,0,0-.5,3.06,7.53,7.53,0,0,0,.54,3,5.4,5.4,0,0,0,1.45,2A5.85,5.85,0,0,0,110.67,96a9.46,9.46,0,0,0,2.58.35,13.82,13.82,0,0,0,2.6-.24,10,10,0,0,0,1.86-.5l.06,0V92.94l-.12,0a14.85,14.85,0,0,1-2,.52,8.18,8.18,0,0,1-3.38,0,3.48,3.48,0,0,1-1.2-.55,2.86,2.86,0,0,1-.84-1,3.87,3.87,0,0,1-.37-1.37h8.3v-.08c0-.3,0-.66,0-1.12A9.55,9.55,0,0,0,117.81,86.46Z"/><path class="cls-1" d="M18.71,96.15a5.59,5.59,0,0,1-5.48-5.73V83h3.16v7.45A2.45,2.45,0,0,0,18.62,93a2.45,2.45,0,0,0,2.31-2.57V83h3.16v7.45A5.57,5.57,0,0,1,18.71,96.15Z"/><path class="cls-1" d="M34.83,89.7A3.35,3.35,0,0,1,31.48,93H29.73v-6.9h1.75a3.35,3.35,0,0,1,3.35,3.35v.21ZM31.48,83H29.73V78.2H26.57v18h4.91A6.51,6.51,0,0,0,38,89.7v-.21A6.52,6.52,0,0,0,31.48,83Z"/><rect class="cls-2" x="69.1" y="78.18" width="3.16" height="18"/><rect class="cls-2" x="75.02" y="82.93" width="3.16" height="13.22"/><path class="cls-1" d="M78.23,80.2a1.64,1.64,0,1,1-1.64-1.63A1.64,1.64,0,0,1,78.23,80.2Z"/><path class="cls-1" d="M89,89c0,1.47-1.53,2.71-3.34,2.71H83.5v-5.6h2.17c1.81,0,3.34,1.24,3.34,2.71V89ZM85.67,83H80.34v16.2H83.5V94.88h2.17c3.58,0,6.5-2.63,6.5-5.87v-.18C92.17,85.59,89.25,83,85.67,83Z"/><path class="cls-1" d="M102.14,89.09c0,1.47-1.53,2.71-3.34,2.71H96.63V86.19H98.8c1.81,0,3.34,1.24,3.34,2.71v.19ZM98.8,83H93.47v16.2h3.16V95H98.8c3.58,0,6.5-2.64,6.5-5.87V88.9C105.3,85.66,102.38,83,98.8,83Z"/><polygon class="cls-1" points="12.7 96.16 4.66 87.19 12.65 78.2 8.43 78.2 3.16 84.12 3.16 78.19 0 78.19 0 96.19 3.16 96.19 3.16 90.25 8.46 96.16 12.7 96.16"/><path class="cls-1" d="M60.56,78a7.72,7.72,0,0,1,6.88,4.85H63.76a4.1,4.1,0,0,0-3.2-1.67C58,81.2,56,83.86,56,87.14s2.06,5.94,4.6,5.94a4.13,4.13,0,0,0,3.2-1.67h3.68a7.74,7.74,0,0,1-6.88,4.85c-4.29,0-7.77-4.08-7.77-9.12S56.27,78,60.56,78Z"/><path class="cls-1" d="M122.85,84.28V83.12h-3.16V96.35h3.16v-8.1a5.17,5.17,0,0,1,4.76-1.81V83.2a5.51,5.51,0,0,0-.71-.07A7.35,7.35,0,0,0,122.85,84.28Z"/><path class="cls-1" d="M68.32,28.72a49.34,49.34,0,0,1,.26,5.05A47.08,47.08,0,0,1,61.9,58.25a32.86,32.86,0,0,1-8.74-2.6h0C60.88,49.45,66.48,39.86,68.32,28.72Z"/><path class="cls-1" d="M99.33,48.21C96,61.11,81.92,70.79,65.13,70.79c-19.32,0-35-12.8-35-28.59,0-7.9,3.92-15.05,10.25-20.22A24.73,24.73,0,0,0,35.65,38.9c1.61,15.32,18.42,25.77,37.56,23.34C84.25,60.84,93.66,55.45,99.33,48.21Z"/><path class="cls-1" d="M66.51,6c15.56,5.3,26.81,20.67,26.81,38.81a42.66,42.66,0,0,1-.26,4.69,37.18,37.18,0,0,1-20.25,9,39.67,39.67,0,0,1-7.39.25,76.37,76.37,0,0,0,5.1-27.88A77.31,77.31,0,0,0,66.51,6Z"/><path class="cls-1" d="M65.76,0a17.54,17.54,0,0,1,9.87,3A14.77,14.77,0,0,0,56,21.5,24.66,24.66,0,0,0,38.12,31.91C37.86,24.85,43,19.16,49.59,17.3a13.76,13.76,0,0,1-.23-2.5C49.36,6.63,56.7,0,65.76,0Z"/></g></g></svg>