<?xml version="1.0" encoding="UTF-8"?>
<svg id="_图层_2" data-name="图层 2" xmlns="http://www.w3.org/2000/svg" viewBox="0 0 211.87 214.48">
  <defs>
    <style>
      .cls-1 {
        fill: #040000;
      }

      .cls-2 {
        fill: #f08d8e;
      }

      .cls-3 {
        fill: #ed7f15;
      }

      .cls-4 {
        fill: #e3eced;
      }

      .cls-5, .cls-6 {
        fill: #fff;
      }

      .cls-7 {
        fill: #7e8c99;
      }

      .cls-8 {
        fill: #dc8356;
      }

      .cls-9 {
        fill: #231815;
      }

      .cls-10 {
        fill: #416fa8;
      }

      .cls-11 {
        fill: #3f7eb4;
      }

      .cls-12 {
        fill: #954b24;
      }

      .cls-6 {
        fill-rule: evenodd;
      }
    </style>
  </defs>
  <g id="_图层_1-2" data-name="图层 1">
    <g>
      <path class="cls-5" d="M80.81,164.9s-24.08,2.04-33.47-2.69c0,0-15.99-7.45-4.78-26.32,0,0,8.02-9.29,8.04-12.54,0,0,1.62-14.92,1.02-18.44,0,0,.28-10.43,13.13-14.39l2.34-2.36,.88,2.4,1.86,1.43s8.38,1.44,9.7,9.34l1.29,5.49s-1.57,20.91,7.24,20.28l19.64,.04,3.25,8.75-1.58,5.88s-17.85,4.78-21.03,4.62c0,0,2.35,14.71-7.52,18.5Z"/>
      <path class="cls-7" d="M48.59,146.82c-.76-1.12-1.97-1.24-2.84-1.08-.48-.81-1.09-1.1-1.55-1.2-.67-.14-1.32,.06-1.83,.32-.15-.41-.37-.75-.68-1.04-.76-.71-1.8-.83-2.59-.8l-.51,1.35c.13,.09,.28,.14,.44,.12,.43-.03,1.21-.02,1.66,.4,.28,.26,.42,.66,.42,1.23,0,.29,.18,.56,.45,.68,.27,.11,.59,.06,.8-.15,.22-.21,.99-.8,1.55-.68,.3,.07,.56,.37,.78,.9,.07,.18,.22,.33,.4,.4s.38,.08,.57,0c.01,0,1.17-.47,1.73,.36,.14,.21,.37,.32,.61,.32,.14,0,.28-.04,.41-.12,.34-.23,.43-.68,.2-1.02Z"/>
      <path class="cls-12" d="M151.71,183.26c3.08-.07,17.62-.65,27.42-4.77l-15.59,29.62c-1.21,2.31-3.32,3.72-5.6,3.75l-129.14,1.7c-2.49,.03-4.93-.82-7-2.47-5.71-4.58-15.88-16.92-20.88-48.5l33.95,7.79c2.73,.63,5.13,2.58,6.62,5.4l.83,1.57c.9,1.7,2.45,2.75,4.13,2.81,11.61,.35,58.05,1.75,85.03,2.55"/>
      <path class="cls-8" d="M9.21,164.43s5.26,42.44,31.45,48.25c0,0-17.83,6.36-25.59-9.35,0,0-16.47-28.67-12.85-40.75l6.99,1.85Z"/>
      <path class="cls-9" d="M28.65,214.48c-2.68,0-5.25-.92-7.43-2.68C15.47,207.19,5.06,194.67,.01,162.73c-.05-.3,.06-.61,.28-.82,.22-.21,.53-.29,.83-.22l33.95,7.79c2.98,.68,5.62,2.82,7.23,5.86l.83,1.57c.75,1.41,2,2.28,3.35,2.32l2.41,.07c14.62,.44,57.23,1.72,82.62,2.48,.51,.02,.91,.44,.89,.95s-.45,.9-.95,.89c-25.38-.76-68-2.04-82.62-2.48l-2.41-.07c-2.02-.06-3.86-1.29-4.92-3.29l-.83-1.57c-1.36-2.57-3.55-4.37-6.01-4.93l-32.62-7.49c5.02,30.34,14.86,42.2,20.33,46.58,1.89,1.52,4.1,2.29,6.41,2.27l129.14-1.7c1.94-.03,3.73-1.24,4.8-3.26l14.46-27.46c-9.91,3.44-22.8,3.9-25.45,3.96h-.02c-.5,0-.91-.4-.92-.9-.01-.51,.39-.93,.9-.94,2.81-.06,17.29-.59,27.08-4.7,.36-.15,.77-.06,1.03,.23,.26,.29,.32,.71,.14,1.05l-15.59,29.62c-1.38,2.62-3.77,4.2-6.4,4.24l-129.14,1.7c-.05,0-.1,0-.16,0Z"/>
      <line class="cls-11" x1="121.06" y1="174.71" x2="131.07" y2="1.28"/>
      <path class="cls-9" d="M121.06,175.98s-.05,0-.07,0c-.7-.04-1.24-.64-1.2-1.35L129.79,1.2c.04-.7,.62-1.25,1.35-1.2,.7,.04,1.24,.64,1.2,1.35l-10.01,173.43c-.04,.68-.6,1.2-1.27,1.2Z"/>
      <g>
        <path class="cls-11" d="M132.06,11.06c22.69,6.78,116.88,42.28,61.94,151.9-.12,.24-.3,.44-.53,.59-3.22,1.98-28.56,16.2-71.09,1.7-.93-.32-1.27-1.45-.69-2.23,8.86-11.78,61.88-87.59,8.87-149.61-.94-1.1,.12-2.75,1.51-2.33Z"/>
        <path class="cls-9" d="M158.61,172.58c-10.21,0-22.45-1.66-36.53-6.46-.72-.25-1.27-.81-1.49-1.54-.23-.73-.09-1.5,.37-2.12,10.61-14.11,60.93-87.59,8.9-148.46-.69-.81-.77-1.95-.19-2.84,.58-.9,1.63-1.28,2.66-.97h0c12.93,3.87,56.41,19.46,72.95,57.75,11.48,26.58,7.97,58.69-10.45,95.44-.2,.4-.5,.73-.87,.96-1.9,1.17-14.28,8.25-35.35,8.25ZM131.62,11.92c-.23,0-.37,.16-.42,.24-.07,.1-.19,.36,.05,.64,22.55,26.38,28.93,58.17,18.96,94.49-7.75,28.25-23.23,50.21-27.79,56.27-.14,.19-.11,.37-.08,.47s.11,.27,.33,.34c42.33,14.44,67.58,.08,70.31-1.61,.08-.05,.15-.12,.19-.21,18.16-36.25,21.67-67.83,10.41-93.89-16.23-37.56-59.05-52.91-71.79-56.72h0c-.06-.02-.12-.03-.17-.03Z"/>
      </g>
      <path class="cls-9" d="M155.24,193.06c-.47,0-.87-.36-.92-.83-.05-.51,.32-.95,.83-1,5.12-.48,12.47-1.51,18.42-3.69,.48-.17,1.01,.07,1.18,.55,.17,.48-.07,1.01-.55,1.18-6.14,2.25-13.66,3.3-18.88,3.8-.03,0-.06,0-.09,0Z"/>
      <path class="cls-9" d="M126.67,193.06h-.02c-32.91-.77-71.6-1.68-83.2-1.95-2.46-.06-4.72-1.26-6.04-3.21l-1.07-1.57c-1.77-2.6-4.65-4.43-7.9-5.01l-24.97-4.47c-.5-.09-.83-.57-.74-1.07s.57-.83,1.07-.74l24.97,4.47c3.73,.67,7.05,2.78,9.09,5.78l1.07,1.57c.99,1.46,2.7,2.36,4.56,2.4,11.6,.27,50.29,1.18,83.2,1.95,.51,.01,.91,.43,.9,.94-.01,.5-.42,.9-.92,.9Z"/>
      <path class="cls-9" d="M114.95,182.5s-.09,0-.13,0c-.5-.07-.85-.54-.78-1.04,.54-3.65,3.85-6.41,7.71-6.41s7.13,2.73,7.7,6.34c.08,.5-.26,.97-.77,1.05-.5,.08-.97-.26-1.05-.77-.43-2.73-2.96-4.79-5.88-4.79s-5.48,2.08-5.89,4.84c-.07,.46-.46,.79-.91,.79Z"/>
      <g>
        <path class="cls-6" d="M180.71,81.35c.33,1.19,.61,2.42,.83,3.67,1.16,6.68,.5,13.18-1.57,18.77-2.18,.02-4.36-.24-6.47-.83h-.03c4.66-5.5,7.37-13.21,7.25-21.6"/>
        <path class="cls-6" d="M204.99,91.84c-.73,9.87-9.35,18.68-21.15,20.74-13.57,2.36-26.21-5.11-28.23-16.68-1.01-5.79,.83-11.51,4.62-16.08-1.87,4.14-2.39,8.66-1.18,12.99,3.08,11.03,16.23,16.64,29.37,12.52,7.58-2.38,13.5-7.48,16.56-13.48"/>
        <path class="cls-6" d="M176.54,64.91c11.6,1.98,21.47,11.87,23.79,25.17,.2,1.16,.34,2.32,.42,3.47-3.23,4.38-8.03,7.51-13.08,9.09-1.68,.53-3.41,.89-5.16,1.08,1.23-6.42,1.32-13.63,.03-21.06-1.14-6.55-3.23-12.57-5.99-17.76"/>
        <path class="cls-6" d="M175.25,60.61c2.6-.45,5.15-.06,7.32,.98-1.33-.33-2.75-.4-4.18-.15-5.72,1-9.52,6.65-8.48,12.62,.22,1.27,.64,2.45,1.22,3.51-5.1,1.41-9.12,5.1-11.23,9.81-1.08-5.14,1.82-9.95,6.2-12.11-.21-.58-.37-1.18-.48-1.8-1.04-5.99,3.27-11.75,9.63-12.86"/>
      </g>
      <g>
        <path class="cls-1" d="M155.94,192.67c0,8.39-6.8,15.2-15.2,15.2s-15.2-6.8-15.2-15.2c0-1.5,.22-2.96,.63-4.33,.84-2.84,2.49-5.33,4.69-7.21,2.66-2.28,6.11-3.65,9.88-3.65,8.39,0,15.2,6.8,15.2,15.2Z"/>
        <circle class="cls-12" cx="140.75" cy="192.67" r="7.13"/>
      </g>
      <path class="cls-7" d="M104.29,143.37c-.28,0-.55-.16-.67-.43-.63-1.4-.26-3.21,0-4.12-2.35-1.83-1.96-4.47-1.25-6.01-2.11-2.35-1.09-4.99-.2-6.11,.25-.32,.71-.37,1.03-.12,.32,.25,.37,.72,.12,1.03-.19,.24-1.79,2.44,.45,4.52,.26,.24,.31,.62,.13,.92-.19,.31-1.74,3.1,.98,4.85,.29,.19,.41,.55,.29,.87-.23,.62-.7,2.46-.21,3.55,.17,.37,0,.81-.37,.97-.1,.04-.2,.06-.3,.06Z"/>
      <path class="cls-7" d="M107.1,141.79l5.85-1.61,4.66-2.68c.1-.44,.12-.73,.12-.73l2.28-10.26-14.43,.99s-2.3,2.69,.52,5.12c0,0-2.22,3.39,1.22,5.43,0,0-.89,2.25-.22,3.74Z"/>
      <path class="cls-7" d="M127.82,125.35l-7.16,1.28s-1.97,.86-1.09,2.49c0,0-2.65,2.29-1.65,4.63,0,0-2.78,2.78,.78,3.91,0,0,10.15,2.19,15.72-8.92,.55-1.09-.68-4.08-1.78-4.59-.48-.22-1.08-.26-1.76,.1-.97,.51-1.98,.91-3.06,1.11Z"/>
      <path class="cls-7" d="M47.81,150.98c-.9-1.34-2.62-.62-2.62-.62-1.13-2.8-3.52-.48-3.52-.48,0-2.26-1.86-2.44-2.86-2.37,0,0-.2,13.6,13.59,17.09,0,0-5.43-7.33-4.82-13.56"/>
      <circle class="cls-2" cx="78.35" cy="107.8" r="2.88"/>
      <path class="cls-7" d="M53.02,162.22l-8.84,9.26c-.32,.34-.35,.86-.06,1.22,.68,.87,2.06,2.18,3.87,1.46,0,0,.48,3.48,4.05,2.13,0,0,1.82,3.16,4.77,.69,.46-.39,.81-.88,1.04-1.44l3.61-8.73s-8.14-4.42-8.45-4.59Z"/>
      <path class="cls-9" d="M54.45,178.94c-1.45,0-2.48-.78-3.07-1.53-1.06,.28-1.84,.06-2.35-.21-.95-.51-1.46-1.45-1.72-2.15-1.24,.09-2.41-.4-3.36-1.42-1.01-1.09-.95-2.81,.13-3.84,.81-.77,1.91-1.84,3.07-2.97,2.1-2.04,4.28-4.16,5.4-5.15,.38-.34,.96-.3,1.3,.08,.34,.38,.3,.96-.08,1.3-1.09,.97-3.35,3.16-5.34,5.09-1.17,1.13-2.27,2.21-3.09,2.99-.36,.34-.38,.9-.05,1.25,.71,.76,1.49,1,2.41,.74,.25-.07,.52-.04,.75,.1,.22,.14,.38,.37,.42,.63,.06,.36,.38,1.39,1.03,1.73,.37,.19,.87,.15,1.48-.12,.46-.21,1.01,0,1.22,.46,.07,.14,.73,1.41,2.27,1.14,.99-.17,1.82-.91,2.17-1.92l3.37-9.77c.17-.48,.69-.74,1.17-.57,.48,.17,.74,.69,.57,1.17l-3.37,9.77c-.57,1.65-1.95,2.85-3.59,3.13-.26,.04-.5,.07-.74,.07Z"/>
      <path class="cls-4" d="M49.34,159.45c5.22,2.89,21.13,9.93,38.5-2.39,.29-.2,.63,.16,.43,.45-2.28,3.25-9.3,10.9-24.41,9.77,0,0-8.61,1.54-13.47-6-.3-.46-1.53-2.09-1.06-1.83Z"/>
      <g>
        <path class="cls-10" d="M72.38,127.93h0l-3.84,.09h0l-.57-2.34c-.04-.17,.09-.33,.26-.33l4.39-.1c.18,0,.32,.16,.28,.33l-.52,2.36Z"/>
        <polygon class="cls-10" points="75.16 145.6 72.33 148.99 67.74 146.13 68.61 128.41 72.39 128.32 75.16 145.6"/>
        <polygon class="cls-5" points="72.05 147.23 66.56 143.37 67.11 142.61 71.88 145.96 74.82 142.33 75.55 142.91 74.82 143.85 72.05 147.23"/>
        <polygon class="cls-5" points="71.87 145.03 66.51 141.16 67.05 140.39 67.59 140.77 71.68 143.74 74.02 140.7 74.48 140.25 75.13 140.93 74.71 141.33 71.87 145.03"/>
      </g>
      <path class="cls-9" d="M66.83,167.94c-6.75,0-11.38-.82-14.58-2.59-.44-.25-.61-.81-.36-1.25,.25-.45,.81-.6,1.25-.36,2.87,1.59,7.35,2.36,13.69,2.36,1.06,0,2.09-.02,3.06-.07,1.05-.05,2.02-.12,2.96-.22,1-.1,1.91-.23,2.79-.39,.93-.17,1.76-.36,2.55-.58,.83-.23,1.56-.49,2.24-.79,1.36-.59,2.64-1.5,3.69-2.62,1.22-1.3,2.26-2.79,2.94-4.17,.34-.69,.61-1.43,.8-2.2,.18-.69,.29-1.42,.35-2.17,.05-.65,.06-1.33,.02-2.02-.03-.58-.1-1.16-.19-1.75-.07-.46-.17-.91-.28-1.35-.07-.28-.15-.56-.24-.84-.02-.08-.05-.15-.07-.22-.1-.27-.07-.57,.09-.81,.15-.24,.41-.4,.7-.42,.17-.01,17.64-1.57,28.8-8.52,.43-.27,1-.14,1.27,.29,.27,.43,.14,1-.29,1.27-10.01,6.23-24.37,8.22-28.5,8.68,.01,.04,.02,.08,.03,.13,.12,.5,.23,1,.31,1.5,.11,.65,.18,1.3,.21,1.94,.04,.77,.03,1.53-.03,2.26-.07,.85-.2,1.68-.41,2.47-.23,.89-.54,1.75-.93,2.55-.76,1.55-1.91,3.19-3.24,4.62-1.22,1.31-2.71,2.37-4.3,3.06-.76,.33-1.57,.61-2.48,.87-.85,.24-1.74,.44-2.73,.62-.93,.17-1.89,.3-2.93,.41-.98,.1-1.98,.17-3.06,.22-1,.05-2.06,.07-3.14,.07Z"/>
      <circle class="cls-2" cx="59.65" cy="107.94" r="2.88"/>
      <path class="cls-9" d="M63.65,107.37c-2.23,0-4.05-1.82-4.05-4.05s1.82-4.05,4.05-4.05,4.05,1.82,4.05,4.05-1.82,4.05-4.05,4.05Zm0-7.03c-1.64,0-2.97,1.33-2.97,2.98s1.33,2.98,2.97,2.98,2.98-1.33,2.98-2.98-1.33-2.98-2.98-2.98Z"/>
      <circle class="cls-9" cx="63.65" cy="103.4" r="1.53"/>
      <circle class="cls-9" cx="74.19" cy="103.32" r="1.53"/>
      <path class="cls-9" d="M74.19,107.37c-2.24,0-4.06-1.82-4.06-4.05s1.82-4.05,4.06-4.05,4.06,1.82,4.06,4.05-1.82,4.05-4.06,4.05Zm0-7.03c-1.64,0-2.98,1.33-2.98,2.98s1.33,2.98,2.98,2.98,2.98-1.33,2.98-2.98-1.33-2.98-2.98-2.98Z"/>
      <ellipse class="cls-5" cx="62.12" cy="102.98" rx=".55" ry=".41"/>
      <ellipse class="cls-5" cx="75.47" cy="102.98" rx=".55" ry=".41"/>
      <g>
        <path class="cls-3" d="M82.4,178.2h0s0,0,0,0h0s-4.24-4.91-4.24-4.91l-2.72,5.89h0s0,0,0,0h0s0,0,0,0c.11,.81,.84,1.38,1.62,1.27,.41-.06,.75-.29,.97-.62,.3,.25,.69,.38,1.1,.32s.75-.29,.97-.62c.3,.25,.69,.38,1.1,.32,.78-.11,1.32-.86,1.21-1.67h0Z"/>
        <path class="cls-9" d="M76.86,181.26c-1.09,0-2.06-.83-2.22-1.97-.01-.1,0-.21,.02-.31,.01-.05,.03-.1,.05-.14l2.72-5.89c.11-.25,.35-.42,.62-.46,.27-.04,.54,.06,.72,.27l4.24,4.91c.1,.12,.17,.26,.19,.41,.17,1.25-.67,2.4-1.89,2.57-.36,.05-.73,0-1.07-.12-.29,.22-.63,.36-1,.41-.36,.05-.73,0-1.07-.12-.29,.22-.63,.36-1,.41-.1,.01-.2,.02-.31,.02Zm-.58-2.01c.12,.27,.38,.44,.66,.4,.23-.03,.36-.18,.41-.27,.13-.19,.33-.32,.56-.35,.23-.04,.46,.03,.63,.18,.08,.07,.25,.18,.47,.14,.22-.03,.36-.18,.41-.27,.13-.19,.33-.32,.56-.35,.23-.04,.46,.03,.63,.18,.08,.07,.25,.17,.47,.14,.28-.04,.49-.28,.52-.56l-3.24-3.76-2.08,4.51Z"/>
      </g>
      <g>
        <rect class="cls-3" x="76.02" y="161.31" width="2.7" height="14.62" rx="1.1" ry="1.1" transform="translate(-22.79 12.46) rotate(-8.03)"/>
        <path class="cls-9" d="M77.99,176.71c-.93,0-1.75-.69-1.88-1.64l-1.73-12.3c-.07-.5,.06-1,.36-1.41,.31-.41,.75-.67,1.25-.74l.49-.07c.51-.07,1,.06,1.41,.36s.67,.75,.74,1.25l1.73,12.3c.07,.5-.06,1-.36,1.41-.31,.41-.75,.67-1.25,.74l-.49,.07c-.09,.01-.18,.02-.27,.02Zm-1.24-14.57s-.03,0-.04,0l-.49,.07c-.11,.02-.17,.08-.2,.12s-.07,.11-.06,.22l1.73,12.3c.02,.16,.18,.28,.34,.25l.49-.07h0c.11-.02,.17-.08,.2-.12s.07-.11,.06-.22l-1.73-12.3c-.01-.11-.08-.17-.12-.2-.03-.02-.09-.06-.18-.06Z"/>
      </g>
      <g>
        <g>
          <path class="cls-3" d="M57.93,178.93h0s0,0,0,0h0s4.24-4.91,4.24-4.91l2.72,5.89h0s0,0,0,0h0s0,0,0,0c-.11,.81-.84,1.38-1.62,1.27-.41-.06-.75-.29-.97-.62-.3,.25-.69,.38-1.1,.32s-.75-.29-.97-.62c-.3,.25-.69,.38-1.1,.32-.78-.11-1.32-.86-1.21-1.67h0Z"/>
          <path class="cls-9" d="M63.47,181.99c-.1,0-.2,0-.31-.02-.36-.05-.7-.19-1-.41-.34,.13-.71,.17-1.07,.12-.36-.05-.71-.2-1-.41-.34,.13-.71,.17-1.07,.12-1.22-.17-2.06-1.33-1.89-2.57,.02-.15,.09-.3,.19-.41l4.24-4.91c.18-.21,.45-.31,.72-.27,.27,.04,.5,.21,.62,.46l2.72,5.89s.04,.09,.05,.14c.02,.1,.03,.21,.02,.31-.16,1.14-1.13,1.97-2.22,1.97Zm-1.16-2.23s.07,0,.11,0c.23,.03,.43,.16,.56,.35,.06,.09,.19,.24,.41,.27,.28,.04,.54-.13,.66-.4l-2.08-4.51-3.24,3.76c.04,.29,.25,.52,.52,.56,.23,.03,.39-.08,.47-.14,.17-.15,.4-.22,.63-.18,.23,.03,.43,.16,.56,.35,.06,.09,.19,.24,.42,.27,.22,.03,.39-.08,.47-.14,.15-.12,.33-.19,.52-.19Z"/>
        </g>
        <g>
          <rect class="cls-3" x="61.46" y="162.19" width="2.7" height="14.62" rx="1.1" ry="1.1" transform="translate(101.34 346.11) rotate(-171.97)"/>
          <path class="cls-9" d="M62.19,177.59c-.09,0-.18,0-.27-.02l-.49-.07h0c-1.04-.15-1.76-1.11-1.62-2.15l1.73-12.3c.15-1.04,1.12-1.76,2.15-1.62l.49,.07c1.04,.15,1.76,1.11,1.62,2.15l-1.73,12.3c-.13,.95-.95,1.64-1.88,1.64Zm-.53-1.68l.49,.07c.16,.02,.32-.09,.34-.25l1.73-12.3c.02-.16-.09-.31-.25-.34l-.49-.07c-.16-.02-.31,.09-.34,.25l-1.73,12.3c-.02,.16,.09,.31,.25,.34Z"/>
        </g>
      </g>
      <circle class="cls-7" cx="55.14" cy="105.84" r="1"/>
      <path class="cls-9" d="M55.5,167.1c-.07,0-.13,0-.2-.02l-.32-.07c-.69-.15-1.37-.37-2.01-.65l-.29-.13c-8.44-3.83-13.32-8.97-14.51-15.26-2.09-11.03,7.88-21.45,8.31-21.88l.51-.45c.6-.55,1.16-1.18,1.63-1.86,.61-1.15,2.12-6.68,2.06-13.29,0-.84-.05-1.68-.09-2.54-.11-2.13-.22-4.33,.19-6.56,2.11-11.64,9.74-12.97,10.9-13.11l1.06-.38c.09-.06,.19-.13,.29-.2,.79-.55,1.87-1.29,2.07-2.22,.01-.05,.02-.09,.04-.14,.06-.15,.38-.89,1.11-1.13,.43-.14,.91-.08,1.33,.19,.42,.26,.67,.72,.74,1.37,.03,.3,.03,.67-.02,1.06,.33-.08,.66-.11,.94-.03,.35,.1,.62,.34,.77,.66,.09,.21,.14,.43,.14,.68,5.23,1.05,9.08,5.26,10.89,11.96,.59,2.19,.67,4.39,.74,6.52,.03,.85,.06,1.7,.12,2.54l.11,1.44c.21,2.87,.4,5.58,.92,7.66l.11,.51s.01,.07,.02,.11c.23,2.01,1.75,3.66,3.78,4.11,1.05,.23,2.26,.33,3.57,.31l.61,.04c6.74,.06,17.27-.04,30.07-1.47,.46-.05,.92-.11,1.38-.16,.25-.04,.51-.07,.79-.1,2.88-.36,5.61-.77,8.15-1.24,1.75-.32,3.46,.56,4.15,2.15,.83,1.88,.36,4.13-1.37,6.69-4.1,6.03-9.15,6.72-13.97,6.91-.34,.01-3.41,.1-4.34-1.72-.51-1-.25-2.24,.78-3.69-.17-.62-.31-1.68,.16-2.75,.37-.83,1.02-1.48,1.95-1.95-.12-.56-.16-1.31,.16-2.06-11.83,1.2-21.55,1.28-27.98,1.23l-.58-.04c-1.37,.02-2.72-.09-3.92-.36-2.8-.62-4.89-2.9-5.21-5.69l-.09-.43c-.55-2.2-.75-4.99-.96-7.94l-.1-1.43c-.06-.86-.1-1.73-.13-2.61-.07-2.02-.14-4.12-.68-6.1-1.7-6.28-5.31-10.1-10.18-10.76l-.13-.02c-.27-.04-.51-.2-.66-.43-.1-.16-.14-.35-.13-.53-.27,.13-.56,.3-.76,.44-.39,.27-.93,.19-1.23-.17-.28-.34-.28-.82-.01-1.16,.09-.18,.19-.55,.25-.94-.61,.99-1.62,1.69-2.35,2.19-.13,.09-.25,.18-.37,.26-.07,.05-.15,.09-.23,.12l-1.28,.46c-.08,.03-.16,.05-.24,.05-.3,.02-7.39,.73-9.36,11.62-.37,2.03-.26,4.12-.16,6.14,.04,.88,.09,1.75,.1,2.61,.06,6.81-1.49,12.71-2.3,14.22-.01,.02-.06,.1-.07,.12-.57,.82-1.21,1.55-1.93,2.21l-.47,.41s-9.68,10.13-7.77,20.22c.98,5.16,4.81,9.5,11.41,12.92-3.06-3.9-6.38-11.4-2.62-23.92,.15-.49,.66-.76,1.15-.62,.49,.15,.76,.66,.62,1.15-5.61,18.7,5.32,25.15,5.43,25.21,.4,.22,.57,.71,.41,1.13-.14,.36-.48,.59-.86,.59Zm67.19-40.57c-1.06,.18-1.76,.53-2.03,1.03-.37,.67,.05,1.54,.05,1.55,.12,.24,.13,.52,.03,.77-.1,.25-.31,.44-.56,.53-.87,.29-1.44,.73-1.69,1.29-.37,.84,.02,1.79,.02,1.8,.14,.31,.09,.67-.12,.94-1.11,1.41-.97,1.98-.89,2.12,.27,.53,1.73,.76,2.63,.72,4.53-.18,8.9-.78,12.52-6.11,1.34-1.97,1.76-3.67,1.21-4.91-.35-.79-1.25-1.24-2.14-1.08-2.8,.51-5.83,.97-9.03,1.35Zm-56.46-35.67s0,0,0,0c0,0,0,0,0,0Z"/>
      <path class="cls-9" d="M52.92,165.73c-.12,0-.25-.03-.37-.08-8.47-4-9.49-12.45-9.52-12.8-.05-.48,.29-.91,.77-.96,.48-.05,.91,.29,.96,.77,0,.08,.97,7.84,8.54,11.42,.43,.21,.62,.72,.41,1.16-.15,.31-.46,.5-.79,.5Z"/>
      <g>
        <path class="cls-5" d="M26.31,69.07c.32,.34,.89,.26,1.1-.16,.04-.07,.07-.15,.11-.22,.89-1.74,2.31-2.72,4.25-2.94,2.29-.27,4.56,1.07,5.42,3.19,.28,.68,.38,1.4,.37,2.13,0,.23,.05,.35,.29,.41,.68,.19,1.28,.52,1.73,1.1,1.23,1.61,.41,3.93-1.58,4.45-.32,.08-.64,.1-.97,.1-4.24,0-8.49,0-12.73,0-1.09,0-1.99-.35-2.63-1.26-.98-1.39-.49-3.31,1.04-4.1,.26-.14,.53-.26,.8-.38,.11-.05,.14-.1,.08-.21-.1-.19-.17-.39-.27-.58-.4-.78-.13-1.62,.52-2.06,.68-.46,1.61-.36,2.19,.25,.09,.09,.18,.19,.27,.29Z"/>
        <path class="cls-9" d="M24.3,77.94c-1.43,0-2.54-.54-3.28-1.6-.59-.85-.79-1.91-.55-2.91,.25-1.02,.93-1.88,1.87-2.37,.08-.04,.16-.08,.25-.12-.54-1.1-.21-2.38,.8-3.06,1.02-.69,2.38-.54,3.23,.36l.15,.16,.03-.06c1.01-1.98,2.65-3.12,4.88-3.38,2.64-.31,5.27,1.24,6.27,3.68,.27,.67,.41,1.38,.43,2.16,.78,.27,1.4,.7,1.86,1.3,.74,.96,.94,2.22,.55,3.36-.4,1.16-1.36,2.05-2.56,2.36-.43,.11-.85,.13-1.17,.13h-3.88c-2.95,0-5.9,0-8.85,0h-.01Zm.49-8.88c-.17,0-.34,.05-.49,.15-.27,.18-.49,.55-.25,1.02,.05,.11,.1,.22,.15,.33,.04,.08,.07,.17,.12,.25,.17,.33,.13,.6,.07,.77-.09,.25-.27,.44-.54,.56-.26,.11-.51,.23-.76,.36-.53,.27-.91,.76-1.05,1.32-.14,.56-.03,1.12,.3,1.6,.44,.63,1.04,.91,1.95,.91h0c2.95,0,5.9,0,8.86,0h3.88c.24,0,.51,0,.77-.07,.69-.18,1.22-.66,1.44-1.32,.22-.64,.11-1.31-.3-1.85-.3-.39-.72-.65-1.3-.81-.34-.09-.91-.37-.89-1.21,.01-.67-.09-1.26-.31-1.8-.73-1.78-2.66-2.92-4.58-2.69-1.68,.2-2.87,1.02-3.63,2.51l-.11,.22c-.22,.43-.64,.73-1.12,.8-.48,.07-.96-.1-1.29-.46l-.27-.28c-.18-.19-.42-.28-.66-.28Zm2.11-.54h0Zm0,0h0Z"/>
      </g>
      <g>
        <path class="cls-5" d="M52.28,42.05c.42,.44,1.15,.34,1.42-.2,.05-.09,.1-.19,.14-.28,1.15-2.25,2.98-3.5,5.48-3.8,2.96-.35,5.88,1.38,6.99,4.11,.36,.88,.49,1.8,.48,2.74,0,.3,.07,.45,.38,.53,.88,.24,1.66,.67,2.23,1.42,1.59,2.07,.53,5.07-2.03,5.74-.41,.11-.83,.13-1.25,.13-5.47,0-10.94,0-16.42,0-1.4,0-2.57-.45-3.39-1.62-1.26-1.8-.63-4.26,1.34-5.29,.34-.18,.68-.34,1.03-.5,.15-.07,.18-.13,.1-.28-.13-.24-.22-.5-.35-.75-.52-1.01-.17-2.09,.67-2.65,.88-.6,2.08-.47,2.82,.32,.12,.12,.23,.24,.35,.37Z"/>
        <path class="cls-9" d="M49.69,53.24c-1.77,0-3.12-.66-4.04-1.96-.73-1.04-.97-2.34-.67-3.56,.31-1.25,1.14-2.3,2.3-2.9,.17-.09,.35-.18,.52-.26-.03-.06-.05-.12-.08-.17-.67-1.32-.28-2.87,.93-3.69,1.22-.82,2.84-.64,3.86,.43l.35,.37s.02,.02,.06,.02l.2-.32c1.26-2.48,3.32-3.91,6.11-4.23,3.29-.38,6.59,1.55,7.84,4.61,.36,.88,.53,1.82,.54,2.86,1.04,.33,1.85,.88,2.44,1.64,.9,1.18,1.15,2.72,.67,4.12-.49,1.43-1.66,2.51-3.14,2.9-.52,.14-1.03,.16-1.45,.16h-4.93c-3.83,0-7.66,0-11.49,0h-.01Zm.63-11.45c-.27,0-.53,.08-.76,.23-.45,.31-.75,.93-.4,1.61,.07,.13,.13,.27,.19,.41,.05,.11,.1,.23,.16,.34,.18,.34,.14,.62,.08,.8-.09,.26-.28,.46-.57,.58-.34,.15-.66,.31-.99,.47-.74,.38-1.28,1.06-1.47,1.85-.19,.78-.04,1.58,.42,2.25,.61,.87,1.47,1.27,2.71,1.27h.01c3.83,0,7.66,0,11.49,0h4.92c.32,0,.7-.01,1.05-.1,.97-.25,1.7-.93,2.02-1.86,.31-.9,.15-1.85-.43-2.61-.42-.54-1-.91-1.8-1.13-.45-.12-.99-.46-.97-1.33,.02-.9-.12-1.69-.42-2.42-.98-2.39-3.57-3.92-6.15-3.61-2.25,.26-3.84,1.36-4.86,3.36l-.14,.28c-.25,.49-.72,.83-1.27,.91-.54,.07-1.09-.12-1.47-.52,0,0,0,0,0,0l-.34-.36c-.27-.29-.65-.44-1.02-.44Z"/>
      </g>
      <g>
        <path class="cls-3" d="M70.28,105.44s-.09,0-.12,.03l-3.25,2.33c-.5,.36-.51,1.11,0,1.47l2.93,2.75s.08,.05,.12,.04l16.26-1.8c.8-.09,.86-1.24,.07-1.41l-15.99-3.41Z"/>
        <path class="cls-9" d="M69.92,112.6c-.18,0-.35-.07-.48-.19l-2.92-2.75c-.32-.23-.54-.67-.54-1.13,0-.47,.22-.9,.6-1.17l3.25-2.33c.16-.11,.36-.15,.54-.12,0,0,0,0,0,0l15.99,3.41c.61,.13,1.02,.66,.99,1.29-.03,.63-.49,1.11-1.11,1.18l-16.26,1.8s-.05,0-.08,0Zm.26-.98h0s0,0,0,0Zm.15-5.62l-3.12,2.23c-.1,.07-.15,.18-.15,.3,0,.12,.05,.23,.15,.3l2.85,2.67,16.08-1.78c.1-.01,.15-.07,.15-.16s-.04-.16-.14-.18l-15.83-3.38Z"/>
      </g>
      <g>
        <line class="cls-3" x1="86.72" y1="109.91" x2="67.94" y2="110.03"/>
        <path class="cls-9" d="M67.94,110.57c-.3,0-.54-.24-.54-.54,0-.3,.24-.54,.54-.54l18.78-.13h0c.3,0,.54,.24,.54,.54,0,.3-.24,.54-.54,.54l-18.78,.13h0Z"/>
      </g>
    </g>
  </g>
</svg>