<?xml version="1.0" encoding="UTF-8"?>
<svg id="_图层_2" data-name="图层 2" xmlns="http://www.w3.org/2000/svg" viewBox="0 0 263.22 151.96">
  <defs>
    <style>
      .cls-1 {
        fill: #f08d8e;
      }

      .cls-2 {
        fill: #ed7f15;
      }

      .cls-3, .cls-4 {
        fill: #fff;
      }

      .cls-5 {
        fill: #7e8c99;
      }

      .cls-6 {
        fill: #a95133;
      }

      .cls-7 {
        fill: #dc8356;
      }

      .cls-8 {
        fill: #231815;
      }

      .cls-9 {
        fill: #416fa8;
      }

      .cls-10 {
        fill: #3f7eb4;
      }

      .cls-4 {
        fill-rule: evenodd;
      }
    </style>
  </defs>
  <g id="_图层_1-2" data-name="图层 1">
    <g>
      <path class="cls-5" d="M146.88,56.04s7.52,6.86,13.01,7.65c0,0,2.07,.08,2.02,1.38s-3,4.72-6.59,2.68c0,0-2.08,5.03-7.34,3.35,0,0-3.09,2.16-5.87-.14l-5.23-6.87s6.92-3.84,9.99-8.05Z"/>
      <path class="cls-8" d="M145.08,73.4c-1.68,0-3.46-.93-5.3-2.77-4.44-5.15-4.3-6.17-4.26-6.51,.07-.5,.53-.86,1.04-.79,.47,.06,.8,.47,.79,.92,.19,.67,2.08,3.16,3.77,5.12,1.47,1.46,2.88,2.22,4.09,2.17,1.01-.05,1.55-.7,1.57-.72,.23-.28,.6-.41,.95-.32,5.15,1.3,6.88-2.29,6.95-2.45,.17-.37,.56-.58,.95-.53,2.98,.38,4.45-.47,5.15-1.26,.67-.75,.75-1.54,.71-1.73-.17-.15-1.29-.48-2.3-.6h-.02c-5.39,0-12.07-6.82-12.35-7.11-.35-.36-.34-.95,.02-1.3,.36-.36,.95-.34,1.3,.02,.06,.07,6.42,6.55,11.03,6.55,.02,0,.05,0,.07,0,.03,0,.07,0,.1,0,.95,.11,3.23,.48,3.81,1.66,.4,.81,.12,2.2-.66,3.3-.75,1.04-2.57,2.69-6.5,2.35-.85,1.26-3.32,3.99-8.21,2.99-.46,.39-1.27,.9-2.43,.97-.1,0-.2,0-.29,0Zm-7.73-9.03s0,0,0,0c0,0,0,0,0,0Z"/>
      <path class="cls-3" d="M22.4,34.3s11.84-12.85,32.96-12.95c0,0,27.02,1.46,41.45,10.71,0,0,.74-21.53,15.62-25.88,0,0,7.08-1.85,8.44-4.91,0,0,1.8-1.4,1.58,1.5l-.63,2.77s3.03-.79,3.03,.29,2.21,1.88,2.21,1.88c0,0,10.22,4.16,10.98,20.06l.44,2.39S185.07-6.91,223.96,14.29l-16.04,24.5s-17.1-6.14-43.77,4.28c0,0-13.65,7.85-14.76,11.26,0,0,.16,26.09-31.13,22.51,0,0-21.82-.46-25.3-24.09,0,0-22.31-17.95-49.1-5.89l-21.47-12.55Z"/>
      <path class="cls-5" d="M203.42,38.36c0-5,7.52-8.9,7.52-8.9-.95-5.89,3.7-8.24,3.7-8.24-.61-5.52,6.3-8.39,6.3-8.39,0,0,4.13,2,11.74,6.36,9.76,5.59,21.55,13.64,25.85,18.95,0,0,4.05,1.46,3.27,3.2-.37,.83-1.96,2.57-5.29,2.48-3.61-.1-8.26-1.67-12.46-4.06,0,0-5.4,6.75-14.44,.39,0,0-6.36,3.71-18.03-.14l-8.16-1.65Z"/>
      <path class="cls-5" d="M196.68,37.49c-.71,0-1.33-.53-1.41-1.25-.58-4.83,4.6-8.04,6.93-9.23-.64-4.27,1.96-7.43,4.04-8.96-.43-4.8,4.42-7.58,7.21-8.41,.75-.22,1.55,.21,1.77,.96,.22,.75-.21,1.55-.96,1.77-.24,.07-6.05,1.88-5.08,6.05,.14,.61-.14,1.25-.68,1.56-.18,.11-4.62,2.74-3.29,7.46,.2,.7-.16,1.43-.83,1.7-.07,.03-6.74,2.89-6.27,6.76,.09,.78-.46,1.49-1.24,1.58-.06,0-.12,.01-.17,.01Z"/>
      <path class="cls-5" d="M45.52,45.91c-.26-5.6-6.38-6.18-6.38-6.18-1.08-4.54-5.56-4.37-5.56-4.37-1.2-4.19-7.35-3.89-7.35-3.89,0,0-23.43,19.61-24.96,29.48,0,0-1.15,2.52,3.73,.42,0,0,7.77-3.47,8.85-5.14,0,0,6.1,2.57,12.44-3.59,0,0,4.8,1.71,18.72-6.46l.52-.28Z"/>
      <path class="cls-5" d="M50.09,45.39h0c-.6,0-1.08-.48-1.08-1.08,0-4.75-5.13-5.56-5.35-5.59-.46-.07-.82-.42-.91-.87-.71-3.77-4.32-3.87-4.47-3.88-.49,0-.92-.35-1.04-.83-.83-3.48-6.25-3.52-6.33-3.52h0c-.59,0-1.08-.48-1.08-1.08,0-.6,.48-1.08,1.08-1.08h0c.37,0,6.52,.07,8.2,4.41,1.89,.28,4.64,1.52,5.59,4.84,2.58,.62,6.47,2.76,6.47,7.59,0,.6-.48,1.08-1.08,1.08Z"/>
      <g>
        <path class="cls-2" d="M147.83,77.72h0s0,0,0,0h0s-6.5-3.83-6.5-3.83l-.8,7.5h0s0,0,0,0h0s0,0,0,0c.43,.85,1.44,1.2,2.25,.79,.43-.22,.72-.6,.84-1.04,.42,.17,.9,.16,1.33-.05,.43-.22,.72-.6,.84-1.04,.42,.17,.9,.16,1.33-.05,.82-.41,1.13-1.43,.71-2.28h0Z"/>
        <path class="cls-8" d="M142.07,83.15c-.91,0-1.81-.52-2.25-1.4-.07-.14-.1-.29-.08-.45l.8-7.5c.03-.27,.19-.51,.44-.63,.24-.12,.53-.11,.77,.03l6.5,3.83c.13,.08,.24,.19,.31,.33,.62,1.24,.15,2.75-1.06,3.36-.38,.19-.81,.28-1.23,.25-.23,.36-.55,.65-.94,.84-.38,.19-.81,.27-1.23,.25-.23,.36-.55,.65-.94,.84-.34,.17-.71,.25-1.08,.25Zm-.71-1.96c.26,.33,.7,.45,1.07,.27,.21-.1,.36-.29,.42-.53,.06-.22,.21-.41,.41-.51,.21-.1,.44-.11,.66-.03,.23,.09,.47,.08,.68-.02,.21-.1,.36-.29,.42-.53,.06-.22,.21-.41,.41-.51s.44-.11,.66-.03c.23,.09,.47,.08,.68-.02,.36-.18,.53-.61,.42-1.01l-5.19-3.06-.64,5.99Z"/>
      </g>
      <g>
        <path class="cls-2" d="M135.15,67.17c.61-.21,1.3,.05,1.61,.62,1.51,2.79,2.9,4.14,5.73,6.74,.91,.84-.19,2.38-1.35,1.94-.02,0-.04-.02-.06-.02-1.45-.91-4.58-3.76-6.58-7.45-.39-.72-.13-1.57,.64-1.84h0Z"/>
        <path class="cls-8" d="M141.56,77.36c-.23,0-.47-.04-.69-.13-.02,0-.09-.04-.11-.04-.03-.01-.07-.03-.1-.05-1.55-.97-4.79-3.93-6.86-7.75-.31-.57-.36-1.23-.14-1.81,.21-.55,.65-.97,1.22-1.17h0c.98-.34,2.09,.09,2.58,1,1.46,2.7,2.83,4.02,5.57,6.53,.67,.62,.79,1.58,.29,2.39-.4,.66-1.07,1.03-1.77,1.03Zm-.11-1.62c.25,.07,.44-.12,.52-.24,.14-.23,.03-.33,0-.37-2.87-2.63-4.32-4.02-5.89-6.95-.12-.23-.4-.33-.64-.25h0c-.13,.04-.21,.12-.25,.23-.05,.14-.03,.31,.05,.47,1.96,3.61,4.99,6.31,6.23,7.11Zm-6.29-8.56h0Z"/>
      </g>
      <g>
        <path class="cls-2" d="M136.33,80.86h0s0,0,0,0h0s-6.15-4.37-6.15-4.37l-1.43,7.4h0s0,0,0,0h0s0,0,0,0c.35,.88,1.33,1.32,2.18,.98,.45-.18,.77-.54,.92-.96,.41,.2,.89,.24,1.33,.06s.77-.54,.92-.96c.41,.2,.89,.24,1.33,.06,.85-.34,1.25-1.33,.9-2.21h0Z"/>
        <path class="cls-8" d="M130.33,85.79c-.99,0-1.93-.61-2.33-1.6-.06-.14-.07-.3-.04-.45l1.43-7.4c.05-.27,.24-.49,.49-.59,.25-.1,.54-.07,.76,.09l6.15,4.37c.12,.09,.22,.21,.28,.36,.52,1.29-.09,2.75-1.35,3.25-.4,.16-.83,.21-1.25,.14-.26,.33-.61,.6-1,.76s-.83,.21-1.25,.14c-.26,.34-.61,.6-1,.76-.29,.12-.59,.17-.89,.17Zm-.75-2.02c.23,.35,.66,.51,1.04,.36,.22-.09,.38-.26,.47-.49,.08-.21,.24-.38,.46-.47,.21-.09,.45-.08,.65,.03,.22,.11,.46,.12,.68,.04,.22-.09,.38-.26,.46-.49,.08-.21,.24-.39,.46-.47,.21-.09,.45-.08,.65,.03,.22,.11,.46,.12,.68,.04,.38-.15,.58-.56,.51-.98l-4.91-3.49-1.14,5.91Z"/>
      </g>
      <g>
        <path class="cls-2" d="M125.47,69.25c.64-.1,1.27,.29,1.47,.91,.97,3.02,2.09,4.61,4.39,7.68,.74,.99-.62,2.3-1.68,1.66-.02-.01-.04-.02-.06-.03-1.26-1.16-3.81-4.54-5.09-8.53-.25-.78,.16-1.56,.97-1.69h0Z"/>
        <path class="cls-8" d="M130.26,80.47c-.35,0-.7-.09-1.02-.29-.05-.03-.15-.09-.18-.13-1.35-1.24-3.99-4.75-5.31-8.87-.2-.62-.13-1.28,.2-1.8,.31-.5,.81-.83,1.41-.92h0c1.02-.15,2.04,.47,2.35,1.46,.94,2.92,2.05,4.48,4.27,7.44,.55,.73,.49,1.69-.15,2.4-.42,.47-1,.72-1.57,.72Zm-.19-1.66c.25,.12,.47-.04,.56-.13,.18-.2,.09-.32,.06-.36-2.33-3.11-3.5-4.75-4.52-7.92-.08-.25-.33-.4-.59-.36-.13,.02-.23,.08-.29,.18-.08,.13-.09,.3-.03,.47,1.25,3.89,3.73,7.1,4.81,8.12Z"/>
      </g>
      <path class="cls-6" d="M169.78,127.62s-8.1-8.85-2.34-14.2c5.76-5.35,23.91-.05,28.4,4.03,4.49,4.09,7.05,4.99,4.75,9.6l-6.1,.32s-17.81-3.14-24.71,.25Z"/>
      <path class="cls-7" d="M181.81,112.41s-3.08,6.05,3.3,9.35c6.38,3.3,12.16,4.39,14.99,3.26,2.83-1.13,0-5.12,0-5.12,0,0-13.78-7.8-18.29-7.49Z"/>
      <path class="cls-8" d="M2.66,62.8c-.53,0-.99-.09-1.38-.27-.85-.38-1.22-1.1-1.27-1.61-.02-.18,.02-.37,.1-.54,.66-1.21,16.32-29.84,40.21-37.73,23.9-7.89,55.56,7.43,56.89,8.09,.46,.22,.64,.78,.42,1.23s-.78,.64-1.23,.42c-.32-.16-32.32-15.65-55.51-7.99C19.28,31.54,4.06,57.15,1.97,60.82c.03,.02,.07,.04,.12,.05,.6,.21,3.18,.43,11.55-5.53,.3-.21,.7-.23,1.01-.04,.02,.01,3.67,1.92,11-3.67,.36-.27,.87-.25,1.19,.06h0s1.83,1.33,7.17-1.52c21.81-11.61,42.95-10.65,59.52,2.72,.4,.32,.46,.9,.14,1.29s-.9,.46-1.29,.14c-16.2-13.06-36.08-13.93-57.5-2.53-4.86,2.59-7.47,2.16-8.61,1.66-6.51,4.78-10.54,4.16-11.98,3.67-5.38,3.79-9.21,5.65-11.63,5.65Z"/>
      <path class="cls-8" d="M149.74,54.92c-.22,0-.43-.08-.61-.23-.38-.33-.42-.92-.08-1.3,9.25-10.54,18.97-13.42,29.8-15.85,16.79-3.77,31.75,.78,38.13,2.72l1.15,.35c7.43,2.2,9.96-1.17,10.06-1.31,.26-.36,.75-.49,1.15-.3,10.31,4.94,13.55,.9,13.58,.85,.26-.34,.71-.46,1.1-.28,10.34,4.55,14.49,3.96,16.04,3.21,.61-.3,1.02-.71,1.23-1.22,0,0-.01,0-.02-.01-.19-.11-.43-.24-.66-.44-.34-.3-.8-.72-1.39-1.26-19.75-18.1-38.25-28.32-54.99-30.37-3.54-.44-7.21-.89-10.98-.57-26.81,2.27-53.96,21.78-54.23,21.98-.41,.3-.99,.21-1.29-.2-.3-.41-.21-.99,.2-1.29,.28-.2,27.84-20.01,55.16-22.33,3.96-.33,7.89,.15,11.36,.58,17.13,2.1,35.98,12.48,56.01,30.84,.57,.52,1.03,.94,1.36,1.23,.08,.07,.2,.14,.34,.21,.35,.19,1.28,.71,1,1.81-.21,.82-.77,1.94-2.29,2.68-3.19,1.55-8.92,.57-17.02-2.93-1.39,1.18-5.67,3.58-14.69-.55-1.22,1.17-4.66,3.46-11.56,1.42l-1.16-.35c-6.25-1.9-20.87-6.36-37.19-2.69-10.52,2.36-19.94,5.14-28.83,15.27-.18,.21-.44,.31-.69,.31Z"/>
      <polygon class="cls-9" points="113.04 41.1 117.33 41.03 117.22 44.26 112.96 44.32 113.04 41.1"/>
      <path class="cls-9" d="M112.96,44.74l4.28-.08s1.38,9.26,11.07,15.22l-.55,3.82-4.68,1.37s-8.05-6.23-10.12-20.34Z"/>
      <path class="cls-3" d="M120.29,64.18c-.26,0-.5-.16-.58-.42-.1-.32,.07-.67,.39-.77l4.87-1.58,.75-3.67c.07-.33,.4-.54,.72-.48,.33,.07,.54,.39,.48,.72l-.89,4.37-5.55,1.8c-.06,.02-.13,.03-.19,.03Z"/>
      <path class="cls-3" d="M118.27,62.18c-.26,0-.5-.16-.58-.42-.1-.32,.07-.67,.39-.77l4.87-1.58,.75-3.67c.07-.33,.39-.54,.72-.48,.33,.07,.54,.39,.48,.72l-.89,4.37-5.55,1.8c-.06,.02-.13,.03-.19,.03Z"/>
      <path class="cls-8" d="M170.23,128.11c-.21,0-.42-.07-.6-.22l-.64-.54c-1.73-1.69-5.56-5.94-4.89-9.93,.73-4.38,4.43-6.96,10.43-7.28,4.08-.21,18.62,1.88,26.72,10.22,1.26,1.3,1.76,3.13,1.3,4.79-.23,.84-.68,1.6-1.34,2.24-.36,.36-.94,.35-1.3-.01-.36-.36-.35-.95,.01-1.3,.42-.42,.71-.89,.86-1.42,.28-1.03-.04-2.18-.85-3.02-7.24-7.46-20.85-9.91-25.31-9.67-3.57,.19-7.97,1.34-8.71,5.75-.54,3.22,3.17,7.14,4.32,8.27l.59,.5c.39,.33,.43,.91,.11,1.3-.18,.21-.44,.32-.7,.32Z"/>
      <path class="cls-8" d="M200.82,127.39c-.38,0-.74-.24-.87-.62-2.34-6.68-19.75-11.96-26.61-10.44-6.01,1.35-4.91,7.64-4.86,7.91,.09,.5-.24,.98-.73,1.07-.49,.09-.98-.23-1.07-.73-.55-2.87,.05-8.66,6.26-10.05,7.01-1.57,25.9,3.46,28.75,11.62,.17,.48-.08,1-.56,1.17-.1,.04-.2,.05-.3,.05Z"/>
      <g>
        <polygon class="cls-10" points="184.27 69.04 172.07 106.9 185.81 106.59 203.48 106.18 184.27 69.04"/>
        <path class="cls-8" d="M172.07,107.82c-.29,0-.56-.14-.74-.37-.18-.24-.23-.55-.14-.83l12.21-37.86c.11-.35,.43-.6,.8-.63,.37-.02,.72,.17,.89,.49l19.21,37.14c.15,.28,.14,.62-.03,.89-.16,.27-.45,.44-.77,.45l-31.42,.72h-.02Zm12.4-36.39l-11.13,34.52,28.65-.66-17.52-33.87Z"/>
      </g>
      <path class="cls-8" d="M186.09,113.17h-.01c-.51,0-.92-.42-.91-.93l.07-5.67c0-.5,.42-.91,.92-.91h.01c.51,0,.92,.42,.91,.93l-.07,5.67c0,.5-.42,.91-.92,.91Z"/>
      <path class="cls-8" d="M178.86,126.15c-4.58-5.51-7.28-16.63-7.28-16.63l-1.89-.22-1.08,.97s3.66,10.46,8.16,15.98l2.08-.1Z"/>
      <path class="cls-8" d="M88.47,151.96c-.48,0-.89-.38-.92-.86-.03-.51,.35-.94,.86-.98,15.93-1,33.73-.72,52.57-.42,19.03,.3,38.71,.61,58.85-.31,29.83-1.37,31.82-4.66,31.92-5.31,.07-.49-1.1-1.64-3.95-2.66-2.23-.8-4.72-1.29-7.39-1.46-9.6-.61-24.38-.76-38.68-.9-24.68-.25-39.92-.47-42.25-2.04-1.01-.67-.96-1.42-.84-1.8,.27-.88,.77-2.51,18.94-3.69,8.92-.58,20.53-.92,29.54-.85,8.32,.06,14.66-.74,18.23-1.49-5.96-.46-24.44-1.78-32.97-1.1-.46,.02-10.71,.51-13.67,.51-.51,0-.92-.41-.92-.92s.41-.92,.92-.92c2.92,0,13.45-.5,13.55-.51,9.33-.74,30.32,.86,34.43,1.19,.29,.02,1.02,.05,1.3,.05,.66,.01,2.2,.04,2.19,1.24,0,.59-.02,1.57-6.83,2.67-4.64,.75-10.4,1.14-16.25,1.11-18.65-.12-42.65,1.26-46.38,3.1,3.01,1.23,23.17,1.44,41.02,1.61,14.32,.14,29.13,.29,38.78,.91,2.84,.18,5.5,.71,7.89,1.57,2.08,.74,5.5,2.33,5.15,4.66-.35,2.3-4.21,5.52-33.66,6.87-20.2,.93-39.91,.62-58.96,.32-18.81-.29-36.57-.58-52.43,.42-.02,0-.04,0-.06,0Z"/>
      <path class="cls-3" d="M115.89,75.82s6.02,1.74,13.43,.67c0,0,6.71-1.06,10.31-4.12l-1.11-5.82-15.31,.9-7.59,5.46,.27,2.9Z"/>
      <path class="cls-3" d="M148.22,55.11s1.5,7.23-6.12,15.1c-.89,.92-1.65,1.51-2.81,2.44l-8.66-1.04-1.85-4.82,.79-6.75,6.26-7.05,6.22-3.7,6.17,5.81Z"/>
      <g>
        <path class="cls-4" d="M187.06,92.92c.08,.33,.15,.66,.21,1,.28,1.82,.04,3.58-.59,5.09-.62,0-1.23-.08-1.82-.25h0c1.36-1.47,2.18-3.56,2.21-5.84"/>
        <path class="cls-4" d="M193.84,95.86c-.28,2.68-2.78,5.04-6.14,5.55-3.85,.59-7.37-1.49-7.85-4.64-.24-1.58,.32-3.12,1.43-4.35-.56,1.12-.74,2.34-.43,3.52,.79,3.01,4.46,4.58,8.21,3.51,2.16-.62,3.87-1.98,4.78-3.6"/>
        <path class="cls-4" d="M186.01,88.44c3.27,.58,5.98,3.31,6.53,6.93,.05,.32,.08,.63,.09,.94-.95,1.18-2.33,2.01-3.77,2.42-.48,.14-.97,.23-1.47,.27,.4-1.74,.48-3.69,.17-5.72-.27-1.78-.82-3.42-1.56-4.84"/>
        <path class="cls-4" d="M185.67,87.27c.74-.11,1.46,0,2.06,.29-.37-.09-.77-.12-1.18-.06-1.63,.25-2.74,1.77-2.49,3.39,.05,.34,.16,.67,.32,.96-1.45,.36-2.62,1.35-3.25,2.62-.27-1.4,.59-2.69,1.84-3.27-.06-.16-.1-.32-.12-.49-.25-1.63,1.01-3.18,2.82-3.45"/>
      </g>
      <path class="cls-8" d="M124.32,78.61c-.59,0-1.19-.01-1.79-.04-10.03-.49-19.68-5.06-24.59-11.63-8.9-11.92-5.42-23.72-4.27-27.6,.1-.35,.18-.62,.23-.81,.4-1.68,1.27-3.26,1.84-4.3,.17-.32,.39-.71,.43-.83,.03-.4,.17-2.28,.48-4.76,.02-.15,.03-.31,.04-.46l.05-1.14c.19-2.26,.49-4.05,.96-5.67,4.13-14.36,13.4-16.11,16.14-16.3,.35-.02,.65-.07,.92-.14l.4-.1c.47-.12,.93-.3,1.36-.53,1.02-.56,2.72-1.5,3.16-2.88,.02-.05,.03-.09,.06-.14,.09-.17,.56-1.02,1.46-1.22,.36-.08,.92-.08,1.52,.38,.45,.35,.68,.93,.69,1.71,0,.53-.11,1.23-.29,1.92,.6-.15,1.2-.21,1.65-.04,.37,.15,.64,.43,.76,.8,.11,.34,.13,.7,.05,1.11,6.46,1.93,10.99,7.63,12.8,16.17,.22,1.04,.33,2.1,.34,3.15,.05,.42,.09,.85,.13,1.29,.24,2.38,.53,5.34,1.45,6.22,.37,.35,.37,.94,.02,1.3-.35,.37-.94,.37-1.3,.02-1.39-1.35-1.7-4.41-2-7.36-.04-.45-.09-.89-.14-1.32,0-.03,0-.07,0-.1,0-.94-.1-1.89-.3-2.82-1.74-8.17-6.09-13.5-12.27-14.99l-.13-.03c-.27-.07-.49-.25-.61-.5-.12-.25-.12-.54,0-.79,.07-.15,.12-.27,.15-.37-.53,.13-1.34,.46-1.86,.75-.42,.23-.94,.1-1.21-.3-.26-.4-.18-.93,.19-1.23,.3-.41,.89-2.49,.73-3.14-.04,.03-.11,.11-.15,.17-.7,2.01-2.75,3.15-3.99,3.83-.57,.31-1.17,.55-1.81,.71l-.4,.1c-.38,.09-.78,.16-1.24,.19-2.44,.17-10.71,1.76-14.5,14.98-.43,1.51-.72,3.18-.89,5.28l-.05,1.1c0,.2-.03,.41-.05,.61-.31,2.43-.45,4.27-.47,4.62,0,.12-.03,.24-.05,.36-.07,.29-.25,.62-.61,1.27-.53,.95-1.32,2.39-1.67,3.84-.05,.22-.14,.52-.25,.91-1.08,3.66-4.37,14.8,3.98,25.98,4.6,6.16,13.71,10.43,23.21,10.9,8.23,.4,15.44-2.11,19.8-6.89,10.16-11.14,4.5-19.16,4.45-19.24-.3-.41-.21-.99,.2-1.29,.41-.3,.99-.21,1.29,.2,.07,.09,6.59,9.32-4.57,21.56-4.41,4.83-11.43,7.53-19.46,7.53Z"/>
      <g>
        <path class="cls-2" d="M118.63,24.75c-.44,.59-1.01,2.16-1.01,2.16,0,0-.88,2.68-1.65,5.1-.3,.93-1.64,.85-1.83-.11-.49-2.5-1.05-5.26-1.05-5.26,0,0-.41-1.9-.66-2.25"/>
        <path class="cls-8" d="M115.08,33.21s-.06,0-.09,0c-.69-.04-1.24-.52-1.37-1.2-.49-2.49-1.04-5.26-1.04-5.26-.18-.83-.45-1.85-.58-2.05-.16-.25-.1-.58,.14-.75s.56-.12,.73,.12c.29,.4,.63,1.85,.75,2.46,0,0,.56,2.77,1.05,5.27,.06,.29,.3,.32,.38,.33,.07,0,.32,0,.41-.28,.77-2.42,1.65-5.11,1.65-5.11,.07-.19,.62-1.67,1.09-2.31,.18-.24,.52-.29,.75-.12,.24,.18,.29,.51,.12,.75-.32,.44-.79,1.61-.94,2.02h0s-.87,2.67-1.64,5.08c-.2,.63-.76,1.03-1.41,1.03Z"/>
      </g>
      <circle class="cls-5" cx="102.63" cy="21.64" r=".94"/>
      <circle class="cls-5" cx="129.65" cy="21.64" r=".94"/>
      <circle class="cls-1" cx="106.26" cy="24.13" r="2.49"/>
      <circle class="cls-1" cx="125.27" cy="23.76" r="2.49"/>
      <path class="cls-8" d="M110.35,23.79c-2.3,0-4.18-1.87-4.18-4.18s1.87-4.18,4.18-4.18,4.18,1.87,4.18,4.18-1.87,4.18-4.18,4.18Zm0-7.28c-1.71,0-3.1,1.39-3.1,3.1s1.39,3.1,3.1,3.1,3.1-1.39,3.1-3.1-1.39-3.1-3.1-3.1Z"/>
      <circle class="cls-8" cx="110.35" cy="19.69" r="1.58"/>
      <circle class="cls-8" cx="120.87" cy="19.26" r="1.58"/>
      <path class="cls-8" d="M120.88,23.44c-2.3,0-4.18-1.87-4.18-4.18s1.87-4.18,4.18-4.18,4.18,1.87,4.18,4.18-1.87,4.18-4.18,4.18Zm0-7.28c-1.71,0-3.1,1.39-3.1,3.1s1.39,3.1,3.1,3.1,3.1-1.39,3.1-3.1-1.39-3.1-3.1-3.1Z"/>
      <ellipse class="cls-3" cx="108.75" cy="19.26" rx=".57" ry=".43"/>
      <ellipse class="cls-3" cx="122.21" cy="18.92" rx=".57" ry=".43"/>
      <path class="cls-2" d="M118.18,24.72s-1.93-.81-2.55-1.54h0c-.71,.65-2.71,1.23-2.71,1.23l.4,.81,2.59,.4s1.77-.47,1.78-.46,.49-.44,.49-.44Z"/>
    </g>
  </g>
</svg>