<?xml version="1.0" encoding="UTF-8"?>
<svg id="_图层_2" data-name="图层 2" xmlns="http://www.w3.org/2000/svg" viewBox="0 0 117.9 203.49">
  <defs>
    <style>
      .cls-1 {
        fill: #f08d8e;
      }

      .cls-2 {
        fill: #ed7f15;
      }

      .cls-3 {
        fill: #fff;
      }

      .cls-4 {
        fill: #7e8c99;
      }

      .cls-5 {
        fill: #231815;
      }

      .cls-6 {
        fill: #416fa8;
      }
    </style>
  </defs>
  <g id="_图层_1-2" data-name="图层 1">
    <g>
      <path class="cls-3" d="M49.98,166.04s-32.46,1.25-41.69-25.93c0,0-16.69-19.89,0-42.29,0,0,6.96-9.33,12.13-12.51,0,0,5.76-19.81,5.01-26.36,0,0-5.66-39.15,23.03-48.86,0,0,8.28-1.82,11.43-6.6,3.15-4.78,3.67-1.6,3.67-.67V7.97s3.87-2.4,3.79-.57c-.08,1.82,.58,2.53,1.3,2.7,.72,.17,11.03,2.68,16.67,12.31,0,0,7.74,13.12,6.61,26.51,0,0-.09,32.14,6.19,38.03,0,0,15.17,13.02,17.88,25.61l-4.87,23.48-1.95,1.96s-2.69,28.41-45.02,28.07h-14.16Z"/>
      <path class="cls-4" d="M18.03,156.07l-14.18,10.36s2.67,6.69,8.04,5.23c0,0,.13,6.98,7.49,5.16,0,0,3.35,7.82,10.92,1.2l3.29-12.91s-15-8.61-15.57-9.03Z"/>
      <path class="cls-5" d="M24.5,181.75c-.93,0-1.79-.16-2.6-.49-2.01-.81-3.09-2.43-3.59-3.41-1.78,.4-3.31,.17-4.55-.69-1.81-1.26-2.45-3.52-2.68-4.81-4.85,.24-7.37-4.21-8.05-6.75-.1-.37,.05-.77,.36-.99,.53-.36,1.94-1.2,3.9-2.36,3.56-2.11,8.43-4.99,11.48-7.11,.42-.29,.99-.19,1.27,.23,.29,.42,.18,.99-.23,1.27-3.11,2.15-8.01,5.06-11.59,7.18-1.37,.81-2.52,1.49-3.22,1.93,.59,1.56,2.48,5.4,6.72,4.69,.26-.04,.52,.02,.72,.19,.2,.16,.33,.41,.34,.67,0,.03,.19,3.1,2.02,4.37,.93,.64,2.19,.72,3.75,.23,.48-.15,.99,.11,1.15,.59,0,.02,.76,2.23,2.9,3.09,1.71,.68,3.89,.36,6.46-.96l3.57-14.01c.12-.49,.63-.78,1.11-.66,.49,.12,.79,.62,.66,1.11l-3.67,14.41c-.06,.25-.23,.46-.45,.58-2.12,1.14-4.05,1.71-5.79,1.71Z"/>
      <path class="cls-6" d="M60.43,90.59h-7.23l-.96-4.41c-.07-.32,.18-.61,.51-.61h8.26c.34,0,.58,.31,.51,.63l-1.09,4.4Z"/>
      <polygon class="cls-6" points="63.51 127.21 56.71 132.79 50.24 127.21 53.32 91.32 60.44 91.32 63.51 127.21"/>
      <polygon class="cls-3" points="56.79 128.17 49.77 122.1 48.82 121.4 49.87 119.99 50.87 120.73 56.82 125.87 63.05 120.75 63.81 120.05 65 121.34 64.21 122.08 56.79 128.17"/>
      <polygon class="cls-3" points="56.79 124.01 49.77 117.94 48.82 117.24 49.87 115.83 50.87 116.57 56.82 121.71 63.05 116.59 63.81 115.89 65 117.18 64.21 117.92 56.79 124.01"/>
      <g>
        <path class="cls-4" d="M2.46,111.09s4.67,1.52,6.08,3.42c0,0-2.79,16.8-.02,23.27,0,0-9.47-9.95-6.07-26.69Z"/>
        <path class="cls-4" d="M8.81,112.05c-2.22-3.21-5.84-3.05-6-3.04l-.09-1.56c.19-.01,4.65-.23,7.37,3.71l-1.28,.89Z"/>
      </g>
      <g>
        <path class="cls-4" d="M115.51,111.09s-4.67,1.52-6.08,3.42c0,0,2.79,16.8,.02,23.27,0,0,9.47-9.95,6.07-26.69Z"/>
        <path class="cls-4" d="M109.16,112.05l-1.28-.89c2.73-3.94,7.18-3.73,7.37-3.71l-.09,1.56,.05-.78-.04,.78c-.16-.01-3.78-.16-6,3.04Z"/>
      </g>
      <path class="cls-5" d="M8.12,139.79c-.33,0-.65-.14-.88-.41-9.25-11.03-7.91-21.09-5.38-29.48,4.41-14.63,17.21-23.91,17.75-24.3,.51-.37,1.23-.25,1.6,.27,.37,.51,.25,1.23-.26,1.6-.13,.09-12.71,9.23-16.89,23.1-2.47,8.19-3.58,17.18,4.95,27.35,.41,.48,.34,1.21-.14,1.61-.21,.18-.48,.27-.73,.27Z"/>
      <path class="cls-5" d="M109.83,139.38c-.26,0-.52-.09-.74-.27-.48-.41-.54-1.13-.13-1.61,8.87-10.46,7.13-19.43,4.81-27.02-4.27-13.94-17.05-23.11-17.18-23.2-.52-.36-.64-1.08-.27-1.59,.36-.52,1.08-.64,1.59-.27,.55,.39,13.55,9.71,18.04,24.4,2.69,8.77,3.91,18.37-5.25,29.17-.23,.27-.55,.4-.87,.4Z"/>
      <path class="cls-5" d="M63.39,167.54h-8.74c-6.68-.01-13.1-.61-19.07-1.77-7.17-1.4-14.33-5.6-20.14-11.84-21.07-22.58-1.04-59.45,3.19-66.61,1.58-2.67,5.56-15.19,6.06-30.33,.06-1.89,.05-3.86,.03-5.77-.04-4.75-.08-9.67,1.03-14.56,5.75-25.52,23.12-27.64,25.08-27.79l2.66-.83c.24-.15,.5-.32,.77-.49,1.96-1.24,4.65-2.93,5.27-5.36,.02-.06,.04-.12,.06-.17,.07-.16,.71-1.55,2.02-1.92,.51-.14,1.3-.19,2.2,.42,.67,.46,1.05,1.28,1.13,2.45,.07,1.02-.11,2.41-.42,3.68,1.07-.42,2.24-.7,3.05-.43,.51,.17,.9,.53,1.09,1.02,.21,.55,.25,1.2,.11,1.93,11.75,2.52,20.08,12.24,23.51,27.49,1.1,4.89,1.06,9.81,1.03,14.56-.02,1.91-.03,3.88,.03,5.77,.5,15.08,3.74,28.01,5.34,30.71h0l.14,.23c5.97,10.03,23.89,44.44,3.78,66-5.82,6.23-12.97,10.44-20.14,11.84-5.97,1.16-12.38,1.76-19.06,1.77ZM61.72,2.87c-.9,3.24-4.11,5.26-6.24,6.61-.31,.2-.6,.38-.86,.55-.09,.06-.19,.11-.29,.14l-2.94,.92c-.1,.03-.2,.05-.31,.05-.71,.02-17.44,.9-23.09,26.02-1.04,4.64-1.01,9.42-.97,14.04,.02,1.93,.03,3.92-.03,5.86-.51,15.25-4.47,28.19-6.38,31.42-4.08,6.92-23.44,42.49-3.49,63.89,5.49,5.88,12.2,9.85,18.91,11.15,5.82,1.14,12.09,1.72,18.63,1.73h8.74c6.53-.01,12.8-.6,18.63-1.73,6.7-1.31,13.42-5.27,18.91-11.15,19.03-20.4,1.7-53.59-4.07-63.27l-.14-.24c-2.03-3.44-5.17-17.21-5.66-31.8-.06-1.94-.05-3.94-.03-5.87,.04-4.62,.07-9.4-.97-14.04-3.31-14.72-11.36-23.93-22.67-25.94l-.28-.05c-.34-.06-.63-.27-.79-.58-.16-.3-.19-.66-.06-.98,.21-.53,.3-.94,.31-1.22-.8,.13-2.51,.89-3.57,1.56-.5,.31-1.16,.19-1.52-.28-.36-.47-.3-1.14,.14-1.54,.59-.81,1.48-5.04,.88-5.76-.07-.04-.2-.11-.25-.09-.17,.05-.42,.38-.53,.58Z"/>
      <g>
        <g>
          <path class="cls-2" d="M64.85,45.88c-.85,1.31-1.87,4.68-1.87,4.68,0,0-1.52,5.77-2.86,10.99-.51,2.01-3.36,2.01-3.88,0-1.33-5.22-2.86-10.99-2.86-10.99,0,0-1.09-3.96-1.68-4.68"/>
          <path class="cls-5" d="M58.19,63.93c-1.33,0-2.45-.87-2.78-2.16-1.33-5.21-2.85-10.98-2.85-10.98-.5-1.8-1.22-3.99-1.51-4.35-.29-.38-.24-.93,.13-1.22,.37-.3,.91-.25,1.21,.12,.65,.8,1.58,4.03,1.84,5,0,0,1.52,5.78,2.86,11,.16,.63,.67,.85,1.09,.85s.93-.22,1.09-.85c1.34-5.22,2.86-10.99,2.86-10.99,.05-.17,1.08-3.54,1.98-4.93,.26-.4,.8-.52,1.21-.26,.4,.26,.52,.8,.26,1.21-.64,.99-1.49,3.55-1.77,4.46h0s-1.52,5.75-2.85,10.95c-.33,1.29-1.45,2.16-2.78,2.16Z"/>
        </g>
        <circle class="cls-4" cx="31.38" cy="39.69" r="2"/>
        <circle class="cls-4" cx="86.59" cy="39.69" r="2"/>
        <circle class="cls-1" cx="39.08" cy="44.96" r="5.27"/>
        <circle class="cls-1" cx="78.79" cy="44.96" r="5.27"/>
        <path class="cls-5" d="M47.72,43.96c-4.72,0-8.56-3.84-8.56-8.56s3.84-8.56,8.56-8.56,8.56,3.84,8.56,8.56-3.84,8.56-8.56,8.56Zm0-15.41c-3.77,0-6.84,3.07-6.84,6.85s3.07,6.85,6.84,6.85,6.84-3.07,6.84-6.85-3.07-6.85-6.84-6.85Z"/>
        <circle class="cls-5" cx="47.72" cy="35.57" r="3.34"/>
        <circle class="cls-5" cx="69.64" cy="35.4" r="3.34"/>
        <path class="cls-5" d="M69.64,43.96c-4.72,0-8.56-3.84-8.56-8.56s3.84-8.56,8.56-8.56,8.56,3.84,8.56,8.56-3.84,8.56-8.56,8.56Zm0-15.41c-3.78,0-6.85,3.07-6.85,6.85s3.07,6.85,6.85,6.85,6.85-3.07,6.85-6.85-3.07-6.85-6.85-6.85Z"/>
        <ellipse class="cls-3" cx="44.35" cy="34.67" rx="1.22" ry=".9"/>
        <ellipse class="cls-3" cx="72.46" cy="34.67" rx="1.22" ry=".9"/>
      </g>
      <g>
        <g>
          <path class="cls-2" d="M83.45,199.29h0s0,0,0,0h0l-10.99-11.45-10.99,11.45h0s0,0,0,0h0s0,0,0,0c0,1.72,2,3.11,4.46,3.11,1.29,0,2.45-.39,3.27-1,.81,.61,1.98,1,3.27,1s2.45-.39,3.27-1c.81,.61,1.98,1,3.27,1,2.46,0,4.46-1.39,4.46-3.11h0Z"/>
          <path class="cls-5" d="M78.98,203.49c-1.19,0-2.33-.28-3.27-.79-1.88,1.03-4.65,1.03-6.53,0-.94,.52-2.07,.79-3.27,.79-3.1,0-5.53-1.83-5.55-4.16,0-.29,.1-.58,.3-.79l11-11.45c.21-.21,.49-.33,.79-.33h0c.3,0,.58,.12,.79,.33l10.98,11.43c.2,.2,.32,.47,.32,.77,0,0,0,0,0,0,0,2.35-2.44,4.19-5.55,4.19Zm-3.27-3.18c.23,0,.46,.07,.65,.22,.66,.49,1.61,.78,2.61,.78,1.73,0,3.01-.81,3.3-1.65l-9.84-10.24-9.84,10.24c.3,.84,1.58,1.65,3.31,1.65,1,0,1.95-.28,2.61-.78,.39-.29,.92-.29,1.31,0,1.32,.99,3.91,.99,5.23,0,.19-.15,.42-.22,.65-.22Zm7.73-1.02h0Z"/>
        </g>
        <g>
          <path class="cls-2" d="M72.64,191.79h-.39c-1.29,0-2.34-1.01-2.34-2.26v-29.42c0-1.25,1.05-2.26,2.34-2.26h.39c1.29,0,2.34,1.01,2.34,2.26v29.42c0,1.25-1.05,2.26-2.34,2.26Z"/>
          <path class="cls-5" d="M72.64,192.88h-.39c-1.89,0-3.43-1.5-3.43-3.35v-29.42c0-1.85,1.54-3.35,3.43-3.35h.39c1.89,0,3.43,1.5,3.43,3.35v29.42c0,1.85-1.54,3.35-3.43,3.35Zm-.39-33.94c-.69,0-1.25,.52-1.25,1.17v29.42c0,.64,.56,1.17,1.25,1.17h.39c.69,0,1.25-.52,1.25-1.17v-29.42c0-.65-.56-1.17-1.25-1.17h-.39Z"/>
        </g>
        <g>
          <path class="cls-2" d="M56.42,199.29h0s0,0,0,0h0l-10.99-11.45-10.99,11.45h0s0,0,0,0h0s0,0,0,0c0,1.72,2,3.11,4.46,3.11,1.29,0,2.45-.39,3.27-1,.81,.61,1.98,1,3.27,1s2.45-.39,3.27-1c.81,.61,1.98,1,3.27,1,2.46,0,4.46-1.39,4.46-3.11h0Z"/>
          <path class="cls-5" d="M51.96,203.49c-1.19,0-2.33-.28-3.27-.79-1.88,1.03-4.65,1.03-6.53,0-.94,.52-2.07,.79-3.27,.79-3.1,0-5.53-1.82-5.55-4.16,0-.01,0-.03,0-.04,0-.28,.11-.55,.3-.76l11-11.45c.21-.21,.49-.33,.79-.33h0c.3,0,.58,.12,.79,.33l10.98,11.43c.2,.2,.32,.47,.32,.77,0,0,0,0,0,0,0,2.35-2.44,4.19-5.55,4.19Zm-3.27-3.18c.23,0,.46,.07,.65,.22,.66,.49,1.61,.78,2.61,.78,1.73,0,3.01-.81,3.3-1.65l-9.84-10.24-9.84,10.24c.3,.84,1.57,1.65,3.3,1.65,1,0,1.95-.28,2.61-.78,.39-.29,.92-.29,1.31,0,1.32,.99,3.91,.99,5.23,0,.19-.15,.42-.22,.65-.22Zm7.73-1.02h0Z"/>
        </g>
        <g>
          <path class="cls-2" d="M45.62,191.79h-.39c-1.29,0-2.34-1.01-2.34-2.26v-29.42c0-1.25,1.05-2.26,2.34-2.26h.39c1.29,0,2.34,1.01,2.34,2.26v29.42c0,1.25-1.05,2.26-2.34,2.26Z"/>
          <path class="cls-5" d="M45.62,192.88h-.39c-1.89,0-3.43-1.5-3.43-3.35v-29.42c0-1.85,1.54-3.35,3.43-3.35h.39c1.89,0,3.43,1.5,3.43,3.35v29.42c0,1.85-1.54,3.35-3.43,3.35Zm-.39-33.94c-.69,0-1.25,.52-1.25,1.17v29.42c0,.64,.56,1.17,1.25,1.17h.39c.69,0,1.25-.52,1.25-1.17v-29.42c0-.65-.56-1.17-1.25-1.17h-.39Z"/>
        </g>
      </g>
      <path class="cls-2" d="M63.89,45.88s-4.17-1.48-5.58-2.94h-.01c-1.41,1.46-5.58,2.94-5.58,2.94l.95,1.66,5.52,.54s3.68-1.2,3.71-1.2,.99-.99,.99-.99Z"/>
    </g>
  </g>
</svg>