<?xml version="1.0" encoding="UTF-8"?>
<svg id="_图层_2" data-name="图层 2" xmlns="http://www.w3.org/2000/svg" viewBox="0 0 179.1 219.13">
  <defs>
    <style>
      .cls-1 {
        fill: #f08d8e;
      }

      .cls-2 {
        fill: #ed7f15;
      }

      .cls-3 {
        fill: #e3eced;
      }

      .cls-4, .cls-5 {
        fill: #fff;
      }

      .cls-6 {
        fill: #7e8c99;
      }

      .cls-7 {
        fill: #a95133;
      }

      .cls-8 {
        fill: #dc8356;
      }

      .cls-9 {
        fill: #231815;
      }

      .cls-10 {
        fill: #416fa8;
      }

      .cls-11 {
        fill: #3f7eb4;
      }

      .cls-5 {
        fill-rule: evenodd;
      }
    </style>
  </defs>
  <g id="_图层_1-2" data-name="图层 1">
    <g>
      <path class="cls-4" d="M8.32,127.12s-5.04-13.88,.61-21.01c0,0,7.08-7.88,7.42-9.42,0,0,2.53-10.24,2.61-13.99,0,0-2.65-18.27,15.35-22.7,0,0,3.18-3.52,3.83-2.84s.69,1.03,.53,1.84-.25,1.34-.25,1.34l1.62-.35,1.03,1.32s10.02,2.54,11.4,14.46c0,0-.67,16.29,.25,17.67,0,0,1.08,9.67,6.13,14l3.46,10.04-19.49,15.35-14.11,4.82s-14.49-4.55-14.71-4.82-5.67-5.71-5.67-5.71Z"/>
      <g>
        <path class="cls-3" d="M39.38,118.26s1.98,4.87-1.5,8.48c-2.92,3.02-8.42,5.03-14.75,4.22-4.4-.56-9.21-2.11-13.81-7.21,0,0-1.4,10.31,17.93,15.27,0,0,14.74,4.03,23-2.24,0,0-7.5-10.5-7.91-11.78s-2.96-6.74-2.96-6.74Z"/>
        <path class="cls-6" d="M6.22,112.6s1.85-.26,2.97,2.03c0,0-.94,3.47-.86,6.98,.07,3.08,1.12,6.23,1.49,6.57,0,0-1.38-.13-2.57-2.86-.93-2.13-1.89-5.74-1.03-12.71Z"/>
        <path class="cls-6" d="M9.49,112.72c-.22,0-.45-.08-.63-.25-.55-.52-1.41-.72-1.87-.79-.5-.08-.84-.55-.76-1.06,.08-.5,.55-.85,1.05-.76,.81,.13,1.96,.46,2.83,1.26,.37,.35,.39,.93,.04,1.3-.18,.19-.43,.29-.67,.29Z"/>
        <path class="cls-6" d="M62.48,118.17l5.32-6.2c.4-.3,.95-.26,1.3,.09,.83,.83,3.69,2.53,2.69,4.34,0,0,3.61,.95,1.74,4.55,0,0,3.11,2.33,.12,5.12-.47,.44-1.04,.75-1.65,.92l-7.46,2.25s-1.91-10.72-2.05-11.07Z"/>
        <path class="cls-9" d="M63.9,129.7c-.42,0-.8-.29-.9-.72-.11-.5,.21-.99,.7-1.1l7.98-1.75c1.14-.24,2.04-1.04,2.35-2.09,.51-1.7-.88-2.57-.94-2.61-.43-.26-.57-.83-.31-1.26,.38-.63,.49-1.17,.32-1.6-.29-.76-1.38-1.23-1.74-1.34-.25-.07-.46-.25-.57-.49-.11-.24-.12-.51-.01-.75,.28-.65-.26-1.28-1.06-2.09-.19-.2-.37-.38-.52-.55-.36-.43-1.55-.57-1.96-.24-1.22,1.01-1.67,2.02-2.15,3.09-.41,.91-.83,1.85-1.72,2.7-.37,.35-.95,.34-1.3-.03-.35-.37-.34-.95,.03-1.3,.62-.6,.94-1.3,1.31-2.12,.52-1.16,1.11-2.47,2.66-3.75,1.18-.98,3.52-.74,4.54,.47,.12,.14,.27,.29,.43,.45,.69,.7,1.75,1.79,1.66,3.18,.71,.35,1.69,1.01,2.12,2.11,.22,.56,.35,1.42-.09,2.5,.83,.82,1.64,2.27,1.07,4.17-.51,1.68-1.93,2.97-3.72,3.35l-7.98,1.75c-.07,.01-.13,.02-.2,.02Z"/>
        <path class="cls-9" d="M12.11,132.83c-.25,0-.5-.1-.68-.3l-2.34-2.61c-7.38-10.12-3.24-21.95,1.32-27.45,1.5-1.81,3.03-3.2,4.55-4.12,.43-.27,1-.13,1.26,.31,.26,.43,.13,1-.31,1.26-1.34,.82-2.71,2.07-4.09,3.73-4.2,5.06-8.01,15.92-1.31,25.12l2.28,2.53c.34,.38,.31,.96-.07,1.3-.18,.16-.4,.24-.62,.24Z"/>
        <path class="cls-6" d="M43.41,123.58s1.73,.39,2.09,.44l-.14,2.18s-.98-.44-1.17-.59-.96-1-.96-1l.19-1.03Z"/>
        <circle class="cls-6" cx="46.22" cy="77.78" r="1.28"/>
        <path class="cls-9" d="M25.25,79.77s-.1,0-.15,0c-1.21-.04-2.33-.55-3.16-1.43-.83-.88-1.26-2.04-1.22-3.25,.04-1.21,.55-2.33,1.43-3.16,.88-.83,2.04-1.26,3.25-1.22,2.5,.08,4.46,2.18,4.38,4.68h0c-.08,2.45-2.1,4.39-4.53,4.39Zm0-7.99c-.88,0-1.71,.33-2.36,.93-.67,.63-1.06,1.49-1.09,2.41s.3,1.8,.93,2.48c.63,.67,1.49,1.06,2.41,1.09,1.91,.08,3.5-1.44,3.56-3.34h0c.06-1.9-1.44-3.5-3.34-3.57-.04,0-.08,0-.12,0Zm3.99,3.58h0Z"/>
        <circle class="cls-9" cx="24.88" cy="74.89" r="1.42" transform="translate(-50.79 97.32) rotate(-88.14)"/>
        <ellipse class="cls-4" cx="26.37" cy="75.52" rx=".38" ry=".52" transform="translate(-53.47 80.48) rotate(-74.31)"/>
        <path class="cls-6" d="M40.76,119.69c-.21,0-.42-.07-.59-.22-.38-.33-.43-.9-.1-1.28,.13-.16,3.16-3.64,7.15-2.74,.54-.75,1.63-1.95,3.25-2.39,1.22-.33,2.48-.18,3.77,.45,1.38-1.63,4.01-3.51,6.77-1.88,.43,.25,.58,.81,.32,1.25-.25,.43-.81,.58-1.25,.32-2.47-1.45-4.75,1.86-4.85,2-.27,.4-.82,.52-1.23,.26-1.09-.68-2.12-.9-3.05-.65-1.61,.43-2.53,2.11-2.54,2.13-.21,.4-.69,.58-1.11,.43-3.14-1.1-5.84,1.97-5.86,2-.18,.21-.44,.32-.69,.32Z"/>
        <path class="cls-6" d="M41.33,121.84s3.15-3.58,7.02-2.22c0,0,2.49-4.58,7.04-1.78,0,0,2.89-4.16,6.2-2.23,0,0,2.67,9.32,1.77,18.14,0,0,.42,8.29,2.5,10.55,0,0-14.11,4.72-24.53-22.45Z"/>
        <path class="cls-9" d="M63.61,145.91c-4.17,0-8.85-2.97-13.03-7.42-1.64,.83-3.31,1.39-4.97,1.66-3.04,.49-6.29,.69-9.67,.58l-4.39-.14c-3.38-.12-6.62-.52-9.62-1.21-3.65-.84-7.25-3.1-10.11-6.39-10.38-11.88,.39-30.27,2.66-33.83,.82-1.29,2.99-7.44,3.49-14.98,.06-.95,.09-1.91,.11-2.89,.06-2.41,.12-4.9,.76-7.38,3.37-12.97,12.09-13.77,13.34-13.82l1.26-.35c.11-.07,.23-.14,.36-.21,.96-.56,2.26-1.33,2.58-2.41,.01-.05,.03-.09,.05-.14,.07-.15,.48-.92,1.28-1.12,.47-.12,.96,0,1.39,.31,.42,.31,.64,.82,.67,1.52,.01,.38-.04,.86-.14,1.36,.43-.09,.84-.12,1.18,0,.35,.13,.61,.39,.74,.74,.09,.25,.12,.53,.09,.83,5.83,1.59,9.84,6.66,11.31,14.39,.48,2.52,.38,5,.28,7.41-.04,.97-.08,1.93-.08,2.89,0,7.53,1.4,14,2.14,15.35l.05,.1c.12,.21,.33,.59,.59,1.1l1.58,2.16c2,2.73,8.4,12.86,6.77,28.63-.1,2.29,.18,8.85,2.74,11.05,.24,.21,.36,.52,.31,.83-.05,.31-.25,.58-.54,.71-1.01,.44-2.08,.65-3.19,.65Zm-19.41-45.77c-.31,.27-7.47,6.82-2.97,18.88,1.14,3.07,2.17,5.45,3.23,7.51,5.01,9.75,13.94,18.69,20.35,17.43-2.67-3.82-2.37-11.09-2.35-11.44,1.57-15.17-4.52-24.82-6.42-27.41l-1.62-2.21s-.05-.08-.07-.12c-.28-.53-.49-.91-.61-1.13l-.06-.1c-.96-1.76-2.36-8.55-2.37-16.24,0-.98,.04-1.97,.08-2.96,.09-2.3,.19-4.68-.25-6.99-1.4-7.31-5.2-11.97-10.7-13.13l-.14-.03c-.27-.06-.5-.24-.62-.48-.12-.24-.13-.51-.03-.75-.38,.14-.83,.34-1.14,.52-.41,.24-.94,.12-1.21-.27-.26-.36-.22-.85,.08-1.17,.19-.3,.43-1.13,.53-1.78-.7,1.39-2.16,2.25-3.17,2.84-.16,.09-.3,.18-.44,.26-.07,.05-.15,.08-.24,.1l-1.49,.41c-.08,.02-.15,.05-.25,.03-.34,0-8.52,.19-11.7,12.44-.59,2.27-.65,4.65-.71,6.96-.03,1-.05,1.99-.11,2.96-.51,7.72-2.75,14.23-3.77,15.85-2.14,3.37-12.35,20.74-2.83,31.64,2.61,2.99,5.86,5.05,9.14,5.8,2.89,.66,6.01,1.05,9.27,1.17l4.39,.14c3.26,.1,6.4-.09,9.32-.56,1.32-.21,2.66-.64,3.98-1.26-2.46-2.86-4.69-6.2-6.48-9.69-1.09-2.12-2.14-4.57-3.32-7.71-4.96-13.28,3.39-20.83,3.48-20.9,.38-.34,.96-.3,1.3,.08,.34,.38,.3,.96-.08,1.3h0Zm-6.76-40.15s0,0,0,0c0,0,0,0,0,0Z"/>
        <path class="cls-9" d="M64.75,145.26s-.03,0-.05,0c-6.94-.35-13.45-13.34-13.72-13.9-.22-.46-.04-1.01,.42-1.23,.46-.23,1.01-.04,1.23,.42,1.73,3.5,7.3,12.63,12.17,12.87,.51,.03,.9,.46,.87,.96-.02,.49-.43,.87-.92,.87Z"/>
        <path class="cls-9" d="M65.15,144.97c-.14,0-.29-.03-.42-.1-6.91-3.6-7.19-20.39-7.2-21.11,0-.51,.4-.92,.91-.93,.53,0,.92,.4,.93,.91,.05,4.55,1.28,16.93,6.21,19.49,.45,.23,.63,.79,.39,1.24-.16,.31-.49,.5-.82,.5Z"/>
        <g>
          <path class="cls-2" d="M28.85,142.83l.1-6.86,.05-1.93c0-.54,.75-.96,1.66-.95h.43c.91,.02,1.64,.47,1.63,1l-.04,2.91-.07,5.93"/>
          <path class="cls-9" d="M32.61,143.75s0,0,0,0c-.45,0-.81-.38-.81-.83l.12-8.84s-.31-.16-.83-.17h-.43c-.5-.03-.81,.17-.85,.23l-.13,8.7c0,.45-.37,.8-.82,.8,0,0,0,0-.01,0-.45,0-.81-.38-.8-.83l.15-8.81c0-.54,.34-1.04,.9-1.37,.44-.25,1-.4,1.58-.38h.43c.58,.01,1.14,.16,1.57,.43,.55,.34,.87,.85,.86,1.4l-.12,8.84c0,.45-.37,.81-.82,.81Z"/>
        </g>
        <g>
          <path class="cls-2" d="M30.09,77.19s.08,.02,.11,.05l2.72,2.94c.42,.45,.27,1.19-.29,1.44l-3.42,2.1s-.08,.03-.13,.02l-15.55-5.06c-.77-.25-.59-1.39,.22-1.39l16.35-.1Z"/>
          <path class="cls-9" d="M29.12,84.29c-.07,0-.14-.01-.22-.03l-15.55-5.06c-.6-.19-.95-.76-.85-1.38,.1-.62,.6-1.06,1.23-1.06l16.35-.1s0,0,0,0c.2,0,.38,.08,.51,.23l2.71,2.94c.32,.35,.45,.81,.35,1.27-.09,.46-.39,.84-.82,1.03l-3.37,2.07c-.11,.07-.23,.1-.36,.1Zm-.2-1.02s0,0,0,0h0Zm.32-.04h0Zm.68-5.5l-16.18,.1s-.15,0-.17,.15c-.02,.1,.02,.16,.12,.19l15.38,5,3.27-2.01c.17-.08,.24-.18,.27-.29,.02-.12,0-.24-.09-.32l-2.6-2.82Zm-.12-.13s0,0,0,0h0Z"/>
        </g>
        <g>
          <line class="cls-2" x1="13.08" y1="78.23" x2="31.45" y2="82.16"/>
          <path class="cls-9" d="M31.45,82.7s-.08,0-.11-.01l-18.36-3.93c-.29-.06-.48-.35-.41-.64,.06-.29,.36-.48,.64-.41l18.36,3.93c.29,.06,.48,.35,.41,.64-.05,.25-.28,.43-.53,.43Z"/>
        </g>
        <circle class="cls-1" cx="39.82" cy="79.97" r="2.99"/>
        <path class="cls-9" d="M35.88,79.23c-.05,0-.1,0-.15,0-2.5-.08-4.46-2.18-4.38-4.68s2.19-4.46,4.68-4.38c1.21,.04,2.33,.55,3.16,1.43,.83,.88,1.26,2.04,1.22,3.25h0c-.04,1.21-.55,2.33-1.43,3.16-.85,.79-1.94,1.23-3.09,1.23Zm0-7.99c-1.85,0-3.39,1.48-3.45,3.34-.06,1.9,1.44,3.5,3.34,3.57,.92,.04,1.8-.3,2.47-.93s1.06-1.49,1.09-2.41h0c.03-.92-.3-1.8-.93-2.48-.63-.67-1.49-1.06-2.41-1.09-.04,0-.08,0-.11,0Z"/>
        <circle class="cls-9" cx="35.5" cy="74.36" r="1.42" transform="translate(-39.97 107.42) rotate(-88.14)"/>
        <ellipse class="cls-4" cx="36.99" cy="74.98" rx=".38" ry=".52" transform="translate(-45.2 90.31) rotate(-74.31)"/>
        <path class="cls-7" d="M16.91,187.12s-6.06-4.53-7.13-8.44c0,0-5.71-8.67-7.28-16.72,0,0-3.58-12.42,1.15-16.95l1.88-1.84v-4.77l9.32-13.75h3.94l7.18,14.74s17.48-.71,33.18,4.81c0,0,9.05,2.74,21.6,11.59,0,0,18.89,12.68,36.43,11.36,0,0,23.22,.24,27.25,.98l-.57,4.02-1.3-.03s-7.43,25.22-17.22,29.33l-1.38,.58s-15.04-4.88-18.41-6.65c0,0-38.95-14.34-43.17-15.72,0,0-16.87-2.85-24.81-.29l-20.67,7.73Z"/>
        <path class="cls-8" d="M53.46,150.21c7.74,11.77,49.09,56.36,83.85,35.74l4.39-13.12,2.28-1.51v-3.1s-36.45,1.16-49.09-5.2c0,0-20.48-9.31-23.62-13.24,0,0-11.9-6.77-20.36-7.39,0,0-.08,.4-.03,1.21,.13,2.02,1.46,4.92,2.57,6.62Z"/>
        <g>
          <path class="cls-11" d="M107.97,9.46c9.8,2.98,107.37,35.68,54.16,143.67-.03,.06-.08,.11-.15,.13-1.98,.62-34.26,10.3-72.5-5.49-.17-.07-.22-.3-.09-.44,2.73-2.95,20.28-28.97,28.89-61.66,6.19-23.46,10.24-49.92-10.56-75.77-.16-.2,0-.51,.24-.44Z"/>
          <path class="cls-9" d="M134.66,157.9c-12.64,0-28.58-2-45.62-9.04-.44-.18-.76-.57-.86-1.04-.1-.47,.03-.95,.36-1.3,2.07-2.23,19.81-27.76,28.62-61.15,5.95-22.55,10.54-48.78-10.34-74.73-.41-.51-.44-1.21-.07-1.74,.35-.52,.98-.74,1.58-.56h0c7.91,2.4,48.16,16.26,64.27,53.41,11.15,25.71,7.99,56.63-9.39,91.9-.18,.36-.48,.62-.85,.74-.78,.25-11.55,3.51-27.69,3.51Zm-43.6-10.76c35.76,14.34,66.25,6.27,70.19,5.12,16.9-34.47,19.99-64.61,9.17-89.57-14.25-32.88-49.06-47.34-59.93-51.15,18.5,24.8,15.28,50.4,8.94,74.44-8.21,31.14-24.21,55.67-28.37,61.17Zm-.8,.99s0,0,0,0c0,0,0,0,0,0ZM107.63,10.59s0,0,0,0h0s0,0,0,0Z"/>
        </g>
        <g>
          <path class="cls-5" d="M148.62,83.73c.29,1.25,.53,2.54,.71,3.85,.96,7,.17,13.76-1.96,19.53-2.1-.03-4.19-.36-6.21-1.03h-.03c4.62-5.61,7.41-13.59,7.49-22.35"/>
          <path class="cls-5" d="M171.75,95.3c-.93,10.28-9.44,19.25-20.85,21.09-13.12,2.12-25.12-5.99-26.78-18.12-.83-6.06,1.07-11.98,4.83-16.65-1.9,4.27-2.5,8.97-1.44,13.51,2.71,11.59,15.24,17.77,27.98,13.8,7.36-2.29,13.18-7.45,16.26-13.64"/>
          <path class="cls-5" d="M144.99,66.48c11.13,2.36,20.39,12.93,22.31,26.86,.17,1.22,.27,2.43,.32,3.63-3.22,4.48-7.91,7.62-12.81,9.15-1.63,.51-3.3,.85-5,1,1.34-6.67,1.59-14.18,.52-21.96-.94-6.86-2.82-13.19-5.35-18.67"/>
          <path class="cls-5" d="M143.85,61.96c2.52-.41,4.96,.07,7.02,1.21-1.28-.38-2.64-.48-4.02-.26-5.54,.89-9.32,6.69-8.46,12.94,.18,1.33,.56,2.57,1.09,3.69-4.95,1.35-8.9,5.09-11.04,9.95-.92-5.39,1.98-10.33,6.26-12.48-.19-.61-.33-1.24-.42-1.89-.86-6.28,3.42-12.17,9.58-13.16"/>
        </g>
        <g>
          <line class="cls-11" x1="108.04" y1="1.28" x2="87.64" y2="158.46"/>
          <path class="cls-9" d="M87.65,159.74c-.05,0-.11,0-.17-.01-.7-.09-1.19-.73-1.1-1.43L106.78,1.11c.09-.7,.73-1.19,1.43-1.1,.7,.09,1.19,.73,1.1,1.43l-20.4,157.18c-.08,.64-.63,1.11-1.26,1.11Z"/>
        </g>
        <path class="cls-9" d="M16.3,188.56c-.2,0-.41-.07-.58-.21-1.29-1.05-2.48-2.28-3.55-3.64-4.05-5.21-10.99-15.73-11.94-27.75-.03-.19-.96-6.39,1.15-9.63l.16-.24c.69-1.07,1.64-2.54,3.41-3.97,.4-.32,.98-.26,1.29,.14,.32,.4,.26,.98-.14,1.29-1.54,1.24-2.36,2.51-3.02,3.54l-.16,.25c-1.43,2.2-1.11,6.82-.86,8.41,.92,11.6,7.64,21.79,11.57,26.83,.98,1.25,2.07,2.38,3.26,3.34,.39,.32,.45,.9,.13,1.29-.18,.22-.45,.34-.71,.34Z"/>
        <path class="cls-9" d="M139.71,169.07c-10.94,0-21.59-.48-21.72-.49-.36-.02-.75-.03-1.18-.05-6.78-.26-20.88-.79-40.1-14.33-19.32-13.62-48.1-13.75-48.5-13.75h0c-1-.06-1.9-.09-2.78-.11-.51-.01-.91-.43-.9-.94,.01-.5,.42-.9,.92-.9,0,0,.01,0,.02,0,.89,.02,1.82,.06,2.78,.12,0,0,0,0,0,0,.59,0,29.79,.2,49.5,14.09,18.77,13.23,32.51,13.75,39.11,14,.43,.02,.83,.03,1.19,.05,.14,0,14.28,.64,26.68,.45,.5-.02,.93,.4,.93,.91,0,.51-.4,.93-.91,.93-1.67,.03-3.38,.04-5.08,.04Z"/>
        <path class="cls-9" d="M124.94,202.62c-.33,0-.64-.17-.81-.48-.24-.45-.08-1,.37-1.25,11.56-6.3,17.12-28.34,17.17-28.56,.12-.49,.62-.79,1.11-.67,.49,.12,.79,.62,.67,1.11-.23,.94-5.81,23.05-18.08,29.74-.14,.08-.29,.11-.44,.11Z"/>
        <path class="cls-9" d="M129.06,173.46c-6.4,0-11.13-.08-11.21-.09-.39-.02-.79-.03-1.23-.05-6.96-.26-21.46-.8-40.08-14.34-18.64-13.54-46.75-13.75-48.33-13.75-.16,0-.24,0-.35,0-.83-.05-1.64-.08-2.41-.1-.51-.01-.91-.44-.9-.94,.01-.51,.46-.87,.94-.9,.79,.02,1.61,.06,2.46,.1,.09,0,.19,0,.29,0,3.39,0,30.59,.44,49.38,14.1,18.17,13.21,32.29,13.74,39.07,13.99,.44,.02,.85,.03,1.22,.05,.11,0,13.73,.24,26.08-.1,0,0,.02,0,.03,0,.5,0,.91,.4,.92,.9,.01,.51-.39,.93-.89,.95-5.12,.14-10.47,.18-14.98,.18Z"/>
        <path class="cls-9" d="M1.21,155.37c-.08,0-.16-.01-.25-.03-.49-.14-.78-.64-.64-1.13,.22-.8,.52-1.5,.89-2.07l.16-.25c.76-1.17,1.91-2.95,4.17-4.54,.42-.29,.99-.19,1.28,.22,.29,.42,.19,.99-.22,1.28-1.97,1.39-2.97,2.92-3.69,4.04l-.16,.25c-.27,.41-.49,.94-.66,1.55-.11,.41-.48,.68-.89,.68Z"/>
        <path class="cls-9" d="M19.28,186.88c-.31,0-.6-.15-.78-.43-7.9-12.53-12.58-28.31-13.89-46.91-.01-.19,.03-.38,.13-.54l8.45-13.83c.17-.28,.49-.44,.8-.44,.33,0,.63,.19,.79,.47l7.3,13.18c.08,.15,.12,.31,.12,.48,0,.22-.77,22.4,9.17,42.01,.23,.45,.05,1.01-.41,1.24-.46,.23-1.01,.05-1.24-.4-9.57-18.89-9.43-40.06-9.37-42.66l-6.41-11.58-7.48,12.23c1.31,17.91,6.01,33.73,13.59,45.77,.27,.43,.14,1-.29,1.27-.15,.1-.32,.14-.49,.14Z"/>
        <path class="cls-9" d="M33.24,181.48c-.34,0-.67-.19-.83-.52-8.97-18.49-8.3-39.31-8.19-41.81l-6.43-13.21-3.38,.1c-.51,0-.93-.38-.95-.89-.02-.51,.38-.93,.89-.95l3.98-.12c.35,0,.7,.19,.86,.52l6.8,13.96c.07,.14,.1,.3,.09,.46-.01,.22-1.3,21.98,7.99,41.14,.22,.46,.03,1.01-.43,1.23-.13,.06-.27,.09-.4,.09Z"/>
        <path class="cls-9" d="M144.08,173.26c-.05,0-.1,0-.15-.01-.5-.08-.84-.56-.75-1.06l.7-4.12c.08-.5,.56-.84,1.06-.75,.5,.08,.84,.56,.75,1.06l-.7,4.12c-.08,.45-.47,.77-.91,.77Z"/>
        <path class="cls-9" d="M151.11,206.65c-18.33,0-40.01-5.89-66.07-17.94-43.02-19.89-68.79-1.16-77.88,7.82-.36,.36-.94,.35-1.3,0-.36-.36-.35-.94,0-1.3,9.36-9.25,35.88-28.56,79.94-8.18,27.96,12.93,50.77,18.71,69.73,17.65,.5-.02,.94,.36,.97,.87,.03,.51-.36,.94-.87,.97-1.49,.08-3,.12-4.54,.12Z"/>
        <path class="cls-9" d="M151.76,219.13c-18.4,0-40.2-6.03-66.47-18.39-42.64-20.05-68.55-1.8-77.71,6.98-.37,.35-.95,.34-1.3-.03-.35-.37-.34-.95,.03-1.3,9.43-9.04,36.09-27.86,79.77-7.32,27.67,13.01,50.27,18.94,69.08,18.14,.48,0,.94,.37,.96,.88,.02,.51-.37,.94-.88,.96-1.14,.05-2.31,.07-3.48,.07Z"/>
        <path class="cls-9" d="M147.02,199.94c-2.51,0-5.15-.34-8.59-1.23-.49-.13-.79-.63-.66-1.12,.13-.49,.63-.79,1.12-.66,5.6,1.44,8.84,1.38,13.21,.75,1.42-.21,2.23-.81,2.5-1.3,.16-.28,.17-.55,.05-.85-.25-.59-1.26-1.64-5.22-1.98-.51-.04-.88-.49-.84-1s.49-.88,1-.84c3.81,.33,6.02,1.34,6.76,3.1,.34,.82,.29,1.69-.14,2.47-.65,1.15-2.05,1.96-3.84,2.22-1.87,.27-3.57,.44-5.34,.44Z"/>
        <g>
          <g>
            <polygon class="cls-10" points="21.52 98.94 25.2 99.05 24.6 101.79 20.93 101.6 21.52 98.94"/>
            <path class="cls-10" d="M20.92,102.14l3.55,.19s.02,8.21,7.36,14.42l-.46,2.93-4.57,.75s-5.94-6.23-5.88-18.28Z"/>
            <path class="cls-4" d="M25.04,119.18c-.25,0-.47-.18-.51-.43-.05-.28,.14-.55,.43-.59l4.27-.7,1.09-2.98c.1-.27,.39-.41,.66-.31,.27,.1,.41,.4,.31,.66l-1.3,3.54-4.87,.8s-.06,0-.08,0Z"/>
          </g>
          <path class="cls-4" d="M23.61,117.25c-.25,0-.47-.18-.51-.43-.05-.28,.14-.55,.43-.59l4.27-.7,1.09-2.97c.1-.27,.39-.41,.66-.31,.27,.1,.41,.4,.31,.66l-1.3,3.54-4.87,.8s-.06,0-.08,0Z"/>
        </g>
      </g>
    </g>
  </g>
</svg>