<svg xmlns="http://www.w3.org/2000/svg" viewBox="0 0 214.36 50.77"><defs><style>.cls-1,.cls-2{fill:#231815;}.cls-1,.cls-3,.cls-4{fill-rule:evenodd;}.cls-3{fill:#3870b0;}.cls-4{fill:#55b5e7;}</style></defs><g id="图层_2" data-name="图层 2"><g id="图层_1-2" data-name="图层 1"><path class="cls-1" d="M113.8,28.62a5,5,0,0,1,.3-1.12,3.1,3.1,0,0,1,.61-1,2.79,2.79,0,0,1,.91-.68,2.82,2.82,0,0,1,1.2-.24,2.7,2.7,0,0,1,1.18.24,2.62,2.62,0,0,1,.84.67,3.31,3.31,0,0,1,.51,1,4.53,4.53,0,0,1,.17,1.13Zm7.87-4.3a5.25,5.25,0,0,0-2.13-1.4,7.67,7.67,0,0,0-2.67-.44,7.35,7.35,0,0,0-2.7.51,6.82,6.82,0,0,0-2.32,1.54,7.55,7.55,0,0,0-1.61,2.59,10.14,10.14,0,0,0-.6,3.64,9.23,9.23,0,0,0,.64,3.6A6.61,6.61,0,0,0,112,36.78a6.72,6.72,0,0,0,2.55,1.35,11.07,11.07,0,0,0,3.08.42,16.44,16.44,0,0,0,3.09-.29,10.7,10.7,0,0,0,2.21-.6l.07,0V34.48l-.14.05a17.5,17.5,0,0,1-2.36.62,9.88,9.88,0,0,1-4,0,4.09,4.09,0,0,1-1.43-.66,3.29,3.29,0,0,1-1-1.16,4.33,4.33,0,0,1-.45-1.64h9.88C123.63,29.15,123.53,26.3,121.67,24.32Z"/><path class="cls-1" d="M193.43,28.69a5,5,0,0,1,.29-1.12,3.28,3.28,0,0,1,.61-1,2.9,2.9,0,0,1,.91-.68,2.86,2.86,0,0,1,1.2-.24,2.67,2.67,0,0,1,1.18.24,2.42,2.42,0,0,1,.84.67,2.92,2.92,0,0,1,.51,1,3.77,3.77,0,0,1,.17,1.13Zm9.26-1.86a6.56,6.56,0,0,0-1.39-2.44,5.32,5.32,0,0,0-2.13-1.4,8,8,0,0,0-2.68-.44,7.3,7.3,0,0,0-2.69.51,6.64,6.64,0,0,0-2.32,1.54,7.41,7.41,0,0,0-1.61,2.59,10.14,10.14,0,0,0-.6,3.64,9.05,9.05,0,0,0,.64,3.6,6.47,6.47,0,0,0,1.73,2.42,6.84,6.84,0,0,0,2.56,1.35,11,11,0,0,0,3.07.42,16.44,16.44,0,0,0,3.09-.29,11.43,11.43,0,0,0,2.22-.59l.06,0V34.55l-.14.05a19.46,19.46,0,0,1-2.35.62,9.88,9.88,0,0,1-4,0,4.14,4.14,0,0,1-1.44-.66,3.21,3.21,0,0,1-1-1.16,4.33,4.33,0,0,1-.45-1.64h9.88v-.09c0-.35,0-.79.05-1.33A11.19,11.19,0,0,0,202.69,26.83Z"/><path class="cls-1" d="M84.74,38.37a6.65,6.65,0,0,1-6.52-6.82V22.68H82v8.87a2.73,2.73,0,1,0,5.41,0V22.68h3.76v8.87A6.64,6.64,0,0,1,84.74,38.37Z"/><path class="cls-1" d="M103.92,30.69a4,4,0,0,1-4,4H97.85V26.46h2.09a4,4,0,0,1,4,4v.25Zm-4-8H97.85V17H94.1V38.42h5.84a7.75,7.75,0,0,0,7.74-7.74v-.25A7.75,7.75,0,0,0,99.94,22.7Z"/><rect class="cls-2" x="144.71" y="16.98" width="3.76" height="21.42"/><rect class="cls-2" x="151.76" y="22.63" width="3.76" height="15.74"/><path class="cls-1" d="M155.58,19.39a1.95,1.95,0,1,1-1.94-1.95A1.94,1.94,0,0,1,155.58,19.39Z"/><path class="cls-1" d="M168.41,30c0,1.75-1.82,3.23-4,3.23h-2.58V26.51h2.58c2.16,0,4,1.48,4,3.23V30Zm-4-7.21h-6.34V42h3.76V37h2.58c4.27,0,7.74-3.13,7.74-7v-.22C172.17,25.89,168.7,22.75,164.43,22.75Z"/><path class="cls-1" d="M184,30c0,1.75-1.82,3.23-4,3.23h-2.58V26.51h2.58c2.15,0,4,1.48,4,3.23V30Zm-4-7.21h-6.34V42h3.76V37h2.58c4.26,0,7.73-3.13,7.73-7v-.22C187.8,25.89,184.33,22.75,180.07,22.75Z"/><polygon class="cls-1" points="77.58 38.39 68.02 27.7 77.53 17 72.5 17 66.23 24.06 66.23 17 62.47 17 62.47 38.42 66.23 38.42 66.23 31.35 72.53 38.39 77.58 38.39"/><path class="cls-1" d="M134.55,16.79a9.21,9.21,0,0,1,8.19,5.77h-4.38a4.91,4.91,0,0,0-3.81-2c-3,0-5.47,3.17-5.47,7.07s2.45,7.08,5.47,7.08a4.91,4.91,0,0,0,3.81-2h4.37a9.18,9.18,0,0,1-8.18,5.77c-5.11,0-9.25-4.86-9.25-10.86S129.44,16.79,134.55,16.79Z"/><path class="cls-1" d="M208.69,24.24V22.87h-3.76V38.6h3.76V29c1.55-1.59,3.45-2.6,5.67-2.16V23c-.28,0-.56-.07-.85-.09A8.94,8.94,0,0,0,208.69,24.24Z"/><path class="cls-3" d="M27.38,20.6a35.79,35.79,0,0,1,.19,3.62,33.77,33.77,0,0,1-4.8,17.56,24.08,24.08,0,0,1-6.27-1.86l0,0A31.15,31.15,0,0,0,27.38,20.6Z"/><path class="cls-3" d="M49.61,34.57c-2.42,9.26-12.48,16.2-24.52,16.2C11.23,50.77,0,41.59,0,30.26c0-5.66,2.81-10.79,7.35-14.5A17.77,17.77,0,0,0,4,27.9c1.15,11,13.21,18.48,26.93,16.74C38.8,43.63,45.55,39.77,49.61,34.57Z"/><path class="cls-4" d="M26.08,4.3C37.24,8.09,45.3,19.12,45.3,32.13a31.29,31.29,0,0,1-.18,3.37A26.62,26.62,0,0,1,30.6,42a27.7,27.7,0,0,1-5.31.18,54.64,54.64,0,0,0,3.66-20A55.34,55.34,0,0,0,26.08,4.3Z"/><path class="cls-3" d="M25.54,0a12.57,12.57,0,0,1,7.08,2.14A10.58,10.58,0,0,0,18.53,15.42,17.7,17.7,0,0,0,5.71,22.89C5.53,17.83,9.23,13.74,14,12.41a9.61,9.61,0,0,1-.17-1.79C13.78,4.75,19,0,25.54,0Z"/></g></g></svg>