<svg xmlns="http://www.w3.org/2000/svg" viewBox="0 0 250.65 86.57"><defs><style>.cls-1{fill:#231815;}.cls-2,.cls-3{fill:#fff;}.cls-2{fill-rule:evenodd;}</style></defs><g id="图层_2" data-name="图层 2"><g id="图层_1-2" data-name="图层 1"><rect class="cls-1" width="250.65" height="86.57"/><path class="cls-2" d="M132,46.52a4.49,4.49,0,0,1,.29-1.12,3.4,3.4,0,0,1,.61-1,3.06,3.06,0,0,1,.91-.68,2.86,2.86,0,0,1,1.2-.24,2.7,2.7,0,0,1,1.18.24,2.52,2.52,0,0,1,.84.68,3.15,3.15,0,0,1,.51,1,4.11,4.11,0,0,1,.17,1.13Zm7.86-4.3a5.5,5.5,0,0,0-2.12-1.4,8,8,0,0,0-2.68-.44,7.3,7.3,0,0,0-2.69.51A6.64,6.64,0,0,0,130,42.43a7.47,7.47,0,0,0-1.62,2.6,10.3,10.3,0,0,0-.6,3.63,9.23,9.23,0,0,0,.64,3.6,6.61,6.61,0,0,0,1.74,2.42A6.72,6.72,0,0,0,132.71,56a11.07,11.07,0,0,0,3.08.42,17.32,17.32,0,0,0,3.09-.28,11.51,11.51,0,0,0,2.22-.6l.06,0V52.38l-.14,0a17.77,17.77,0,0,1-2.35.62,9.75,9.75,0,0,1-4,0,4.09,4.09,0,0,1-1.43-.66,3.21,3.21,0,0,1-1-1.16,4.33,4.33,0,0,1-.45-1.63h9.88C141.77,47.05,141.68,44.2,139.81,42.22Z"/><path class="cls-2" d="M211.57,46.59a5.57,5.57,0,0,1,.29-1.12,3.4,3.4,0,0,1,.61-1,3.1,3.1,0,0,1,.92-.68,2.82,2.82,0,0,1,1.2-.24,2.66,2.66,0,0,1,1.17.24,2.34,2.34,0,0,1,.84.68,2.78,2.78,0,0,1,.51,1,4.11,4.11,0,0,1,.18,1.13Zm9.26-1.86a6.56,6.56,0,0,0-1.39-2.44,5.53,5.53,0,0,0-2.13-1.4,7.93,7.93,0,0,0-2.68-.44,7.3,7.3,0,0,0-2.69.51,6.64,6.64,0,0,0-2.32,1.54A7.65,7.65,0,0,0,208,45.09a10.17,10.17,0,0,0-.6,3.64,9.05,9.05,0,0,0,.64,3.6,6.59,6.59,0,0,0,1.73,2.42,6.84,6.84,0,0,0,2.56,1.35,11,11,0,0,0,3.07.42,17.32,17.32,0,0,0,3.09-.28,11.31,11.31,0,0,0,2.22-.6l.06,0V52.45l-.13,0a18.32,18.32,0,0,1-2.36.62,9.71,9.71,0,0,1-4,0,4.14,4.14,0,0,1-1.44-.66,3.31,3.31,0,0,1-1-1.16,4.33,4.33,0,0,1-.44-1.63h9.88v-.1c0-.35,0-.78.05-1.33A11.19,11.19,0,0,0,220.83,44.73Z"/><path class="cls-2" d="M102.88,56.27a6.65,6.65,0,0,1-6.52-6.82V40.58h3.76v8.87a2.73,2.73,0,1,0,5.41,0V40.58h3.76v8.87A6.64,6.64,0,0,1,102.88,56.27Z"/><path class="cls-2" d="M122.06,48.59a4,4,0,0,1-4,4H116V44.36h2.08a4,4,0,0,1,4,4v.25Zm-4-8H116V34.9h-3.76V56.32h5.84a7.75,7.75,0,0,0,7.74-7.74v-.25A7.75,7.75,0,0,0,118.08,40.6Z"/><rect class="cls-3" x="162.85" y="34.88" width="3.76" height="21.42"/><rect class="cls-3" x="169.9" y="40.53" width="3.76" height="15.74"/><path class="cls-2" d="M173.72,37.29a1.95,1.95,0,1,1-1.94-1.95A1.94,1.94,0,0,1,173.72,37.29Z"/><path class="cls-2" d="M186.56,47.86c0,1.75-1.83,3.23-4,3.23H180V44.42h2.58c2.15,0,4,1.47,4,3.22v.22Zm-4-7.2h-6.34V59.94H180V54.85h2.58c4.26,0,7.73-3.13,7.73-7v-.22C190.31,43.79,186.84,40.66,182.58,40.66Z"/><path class="cls-2" d="M202.19,47.86c0,1.75-1.83,3.23-4,3.23h-2.58V44.42h2.58c2.15,0,4,1.47,4,3.22v.22Zm-4-7.2h-6.34V59.94h3.76V54.85h2.58c4.26,0,7.74-3.13,7.74-7v-.22C206,43.79,202.47,40.66,198.21,40.66Z"/><polygon class="cls-2" points="95.72 56.29 86.16 45.61 95.67 34.9 90.64 34.9 84.37 41.96 84.37 34.9 80.61 34.9 80.61 56.32 84.37 56.32 84.37 49.25 90.68 56.29 95.72 56.29"/><path class="cls-2" d="M152.7,34.69a9.2,9.2,0,0,1,8.18,5.77H156.5a4.89,4.89,0,0,0-3.8-2c-3,0-5.48,3.17-5.48,7.08s2.45,7.07,5.48,7.07a4.89,4.89,0,0,0,3.8-2h4.38a9.2,9.2,0,0,1-8.18,5.77c-5.12,0-9.26-4.86-9.26-10.85S147.58,34.69,152.7,34.69Z"/><path class="cls-2" d="M226.84,42.14V40.77h-3.76V56.5h3.76V46.87c1.54-1.59,3.44-2.6,5.66-2.16V40.86a7.89,7.89,0,0,0-.85-.08A8.79,8.79,0,0,0,226.84,42.14Z"/><path class="cls-2" d="M45.52,38.5a35.79,35.79,0,0,1,.19,3.62,33.77,33.77,0,0,1-4.8,17.56,24.08,24.08,0,0,1-6.27-1.86l0,0A31.1,31.1,0,0,0,45.52,38.5Z"/><path class="cls-2" d="M67.76,52.47c-2.42,9.26-12.49,16.2-24.53,16.2-13.86,0-25.09-9.18-25.09-20.5,0-5.67,2.81-10.8,7.36-14.51A17.72,17.72,0,0,0,22.09,45.8C23.24,56.79,35.3,64.28,49,62.54,57,61.53,63.69,57.67,67.76,52.47Z"/><path class="cls-2" d="M44.22,22.2C55.38,26,63.45,37,63.45,50a31.28,31.28,0,0,1-.19,3.37,26.7,26.7,0,0,1-14.52,6.47,28.42,28.42,0,0,1-5.3.17,54.81,54.81,0,0,0,3.65-20A55.34,55.34,0,0,0,44.22,22.2Z"/><path class="cls-2" d="M43.68,17.9A12.57,12.57,0,0,1,50.76,20a10.58,10.58,0,0,0-14.69,9.75,10.55,10.55,0,0,0,.6,3.53,17.68,17.68,0,0,0-12.81,7.47c-.18-5.06,3.51-9.15,8.23-10.48a9.61,9.61,0,0,1-.17-1.79C31.92,22.65,37.19,17.9,43.68,17.9Z"/></g></g></svg>